<?xml version="1.0" encoding="UTF-8" standalone="no"?>
<svg
   xmlns:dc="http://purl.org/dc/elements/1.1/"
   xmlns:cc="http://creativecommons.org/ns#"
   xmlns:rdf="http://www.w3.org/1999/02/22-rdf-syntax-ns#"
   xmlns:svg="http://www.w3.org/2000/svg"
   xmlns="http://www.w3.org/2000/svg"
   xmlns:sodipodi="http://sodipodi.sourceforge.net/DTD/sodipodi-0.dtd"
   xmlns:inkscape="http://www.inkscape.org/namespaces/inkscape"
   inkscape:version="1.0 (4035a4f, 2020-05-01)"
   sodipodi:docname="Logo CNP Assurances.svg"
   viewBox="0 0 700 500.24108"
   height="500.24109"
   width="700"
   xml:space="preserve"
   id="svg833"
   version="1.1"><metadata
     id="metadata839"><rdf:RDF><cc:Work
         rdf:about=""><dc:format>image/svg+xml</dc:format><dc:type
           rdf:resource="http://purl.org/dc/dcmitype/StillImage" /><dc:title></dc:title></cc:Work></rdf:RDF></metadata><defs
     id="defs837" /><sodipodi:namedview
     inkscape:current-layer="g841"
     inkscape:window-maximized="0"
     inkscape:window-y="0"
     inkscape:window-x="0"
     inkscape:cy="131.27948"
     inkscape:cx="107.78959"
     inkscape:zoom="0.50956775"
     showgrid="false"
     id="namedview835"
     inkscape:window-height="900"
     inkscape:window-width="1440"
     inkscape:pageshadow="2"
     inkscape:pageopacity="0"
     guidetolerance="10"
     gridtolerance="10"
     objecttolerance="10"
     borderopacity="1"
     bordercolor="#666666"
     pagecolor="#ffffff" /><g
     transform="matrix(1.3333333,0,0,-1.3333333,-597.16536,158.75373)"
     inkscape:label="Logo"
     inkscape:groupmode="layer"
     id="g841"><g
       transform="matrix(0.9999957,0,0,0.9999957,0.00192532,5.1183683e-4)"
       id="g1041"><path
         id="path893"
         style="fill:#172062;fill-opacity:1;fill-rule:nonzero;stroke:none;stroke-width:5.64802"
         d="m 766.13068,-252.08276 c 3.54131,0 5.73838,1.77348 7.36501,4.31508 l 3.7164,-2.06152 c -2.45689,-3.99315 -6.30319,-6.24106 -11.43159,-6.24106 -7.39325,0 -12.21666,5.85699 -12.21666,13.40274 0,7.39326 4.72175,13.40274 12.19972,13.40274 6.72679,0 12.18842,-6.00948 12.18842,-13.40274 0,-0.5535 -0.0339,-1.09006 -0.0847,-1.62663 h -19.86972 c 0.61563,-4.79516 3.92537,-7.78861 8.13314,-7.78861 m -8.08796,11.46547 h 15.54334 c -0.74554,4.68786 -4.02139,7.35372 -7.48927,7.35372 -3.20807,0 -7.21816,-2.10671 -8.05407,-7.35372" /><path
         id="path897"
         style="fill:#172062;fill-opacity:1;fill-rule:evenodd;stroke:none;stroke-width:5.64802"
         d="m 473.23249,-229.96626 h -4.32638 v -3.62038 h -0.10731 c -2.10671,2.7054 -5.24701,4.32073 -8.70924,4.32073 -7.61918,0 -12.21101,-6.21846 -12.21101,-13.45357 0,-7.03743 4.69915,-13.36321 12.16018,-13.36321 3.56954,0 6.5404,1.40636 8.76007,4.22472 h 0.10731 v -3.52436 h 4.32638 z m -12.65156,-3.29844 c 5.34868,0 8.5398,-4.11176 8.5398,-9.18932 0,-5.1397 -2.91437,-9.62987 -8.48332,-9.62987 -5.41079,0 -8.33082,4.69915 -8.33082,9.6807 0,4.76128 3.24196,9.13849 8.27434,9.13849" /><path
         id="path901"
         style="fill:#172062;fill-opacity:1;fill-rule:evenodd;stroke:none;stroke-width:5.64802"
         d="m 507.88533,-233.99951 c -1.13525,2.65457 -3.84065,4.69915 -6.76067,4.69915 -4.10611,0 -7.56835,-2.92003 -7.56835,-7.18428 0,-7.99759 11.46548,-6.06032 11.46548,-11.73093 0,-2.32698 -1.78478,-3.90277 -4.11176,-3.90277 -2.86354,0 -4.10611,1.6831 -5.18488,4.05527 l -3.8463,-1.60968 c 1.34988,-3.9988 4.7048,-6.44439 8.98035,-6.44439 4.69915,0 8.59628,3.46223 8.59628,8.27999 0,4.26425 -2.92003,6.04903 -5.89653,7.30289 -2.9765,1.24256 -5.89653,2.10106 -5.89653,4.42804 0,1.61533 1.62663,2.80706 3.1403,2.80706 1.5645,0 2.86919,-1.23691 3.46223,-2.59244 z" /><path
         id="path905"
         style="fill:#172062;fill-opacity:1;fill-rule:evenodd;stroke:none;stroke-width:5.64802"
         d="m 542.97249,-233.99951 c -1.13525,2.65457 -3.84065,4.69915 -6.76067,4.69915 -4.10611,0 -7.56835,-2.92003 -7.56835,-7.18428 0,-7.99759 11.46548,-6.06032 11.46548,-11.73093 0,-2.32698 -1.78478,-3.90277 -4.11176,-3.90277 -2.86354,0 -4.10611,1.6831 -5.19053,4.05527 l -3.84065,-1.60968 c 1.34988,-3.9988 4.7048,-6.44439 8.98035,-6.44439 4.69915,0 8.59628,3.46223 8.59628,8.27999 0,4.26425 -2.92003,6.04903 -5.89653,7.30289 -2.9765,1.24256 -5.89653,2.10106 -5.89653,4.42804 0,1.61533 1.62663,2.80706 3.1403,2.80706 1.5645,0 2.86919,-1.23691 3.46223,-2.59244 z" /><path
         id="path909"
         style="fill:#172062;fill-opacity:1;fill-rule:evenodd;stroke:none;stroke-width:5.64802"
         d="m 567.26405,-229.96626 h -4.32638 v -14.65095 c 0,-6.75503 2.54726,-11.46548 10.05912,-11.46548 7.51186,0 10.05911,4.71045 10.05911,11.46548 v 14.65095 h -4.32638 v -14.15958 c 0,-4.27554 -0.49138,-7.95805 -5.73273,-7.95805 -5.24701,0 -5.73274,3.68251 -5.73274,7.95805 z" /><path
         id="path913"
         style="fill:#172062;fill-opacity:1;fill-rule:evenodd;stroke:none;stroke-width:5.64802"
         d="m 607.07578,-229.96626 h -4.32638 v -25.41607 h 4.32638 v 12.71368 c 0,3.30409 0.21462,9.40395 4.9759,9.40395 1.13525,0 1.72829,-0.53656 2.59244,-1.13525 l 2.05588,3.95361 c -1.24256,0.70035 -2.42865,1.18043 -3.89148,1.18043 -2.81272,0 -4.11176,-1.45718 -5.62543,-3.45093 h -0.10731 z" /><path
         id="path917"
         style="fill:#172062;fill-opacity:1;fill-rule:evenodd;stroke:none;stroke-width:5.64802"
         d="m 655.06302,-229.96626 h -4.32638 v -3.62038 h -0.10731 c -2.10106,2.7054 -5.24136,4.32073 -8.70359,4.32073 -7.61918,0 -12.21666,-6.21846 -12.21666,-13.45357 0,-7.03743 4.70479,-13.35191 12.16018,-13.35191 3.56954,0 6.5404,1.40636 8.76007,4.21342 h 0.10731 v -3.51307 h 4.32638 z m -12.65156,-3.29844 c 5.35432,0 8.54545,-4.10046 8.54545,-9.18932 0,-5.1397 -2.92002,-9.62987 -8.48897,-9.62987 -5.41079,0 -8.33082,4.71045 -8.33082,9.6807 0,4.76128 3.24761,9.13849 8.27434,9.13849" /><path
         id="path921"
         style="fill:#172062;fill-opacity:1;fill-rule:evenodd;stroke:none;stroke-width:5.64802"
         d="m 679.74993,-229.96626 h -4.32638 v -25.41607 h 4.32638 v 12.06981 c 0,4.53536 0.37842,10.04782 6.32578,10.04782 5.02673,0 5.35432,-3.67686 5.35432,-7.78297 v -14.33466 h 4.32638 v 15.08585 c 0,5.94736 -1.62663,11.03057 -8.65276,11.03057 -3.1403,0 -5.46163,-1.34422 -7.24076,-3.77287 h -0.11296 z" /><path
         id="path925"
         style="fill:#172062;fill-opacity:1;fill-rule:evenodd;stroke:none;stroke-width:5.64802"
         d="m 735.5687,-231.80469 c -2.2705,1.62663 -5.08321,2.53596 -7.84509,2.53596 -7.45538,0 -13.57219,-5.8344 -13.57219,-13.39709 0,-7.68131 5.8457,-13.41969 13.51571,-13.41969 3.02733,0 5.57459,0.92627 8.05407,2.59809 v 5.79486 h -0.096 c -2.11801,-2.76753 -4.65961,-4.39415 -8.27434,-4.39415 -5.29784,0 -8.76572,4.39415 -8.76572,9.42089 0,5.07756 3.73898,9.39829 8.98599,9.39829 3.39446,0 5.89088,-1.72829 7.88463,-4.26425 h 0.11296 z" /><path
         id="path929"
         style="fill:#172062;fill-opacity:1;fill-rule:evenodd;stroke:none;stroke-width:5.64802"
         d="m 810.66359,-233.96619 c -1.13525,2.65457 -3.8463,4.69915 -6.76632,4.69915 -4.10611,0 -7.57399,-2.92003 -7.57399,-7.18428 0,-7.99759 11.46547,-6.06032 11.46547,-11.73093 0,-2.32698 -1.77913,-3.90277 -4.10046,-3.90277 -2.87484,0 -4.10611,1.6831 -5.19053,4.05527 l -3.84629,-1.60968 c 1.34987,-3.9988 4.70479,-6.44439 8.98599,-6.44439 4.69915,0 8.58498,3.46223 8.58498,8.27999 0,4.26425 -2.91437,6.04903 -5.89653,7.30289 -2.97085,1.24256 -5.89088,2.10106 -5.89088,4.42804 0,1.61533 1.62663,2.80706 3.14595,2.80706 1.5645,0 2.86354,-1.23691 3.45094,-2.59244 z" /></g><path
       id="path931"
       style="fill:#172062;fill-opacity:1;fill-rule:evenodd;stroke:none;stroke-width:5.648"
       d="M 447.87403,119.0653 H 771.27802 V -204.33305 H 447.87403 Z" /><g
       transform="matrix(0.9999957,0,0,0.9999957,0.00192532,5.1183683e-4)"
       id="g1029"><path
         id="path935"
         style="fill:#ffffff;fill-opacity:1;fill-rule:evenodd;stroke:none;stroke-width:5.64802"
         d="m 553.31175,-97.403378 -14.61142,-11.143532 c -4.60313,5.80616 -12.30138,9.985689 -19.37834,9.985689 -13.40274,0 -24.25258,-11.200019 -24.25258,-24.992469 0,-13.80375 10.84984,-24.99247 24.25258,-24.99247 7.16168,0 14.67355,4.03268 19.37834,9.97439 l 14.61142,-11.14353 c -7.84509,-10.17208 -20.14647,-16.72378 -33.98976,-16.72378 -23.68213,0 -42.88538,19.20326 -42.88538,42.88539 0,23.676481 19.20325,42.874087 42.88538,42.874087 13.84329,0 26.14467,-6.551699 33.98976,-16.723775" /><path
         id="path939"
         style="fill:#ffffff;fill-opacity:1;fill-rule:evenodd;stroke:none;stroke-width:5.64802"
         d="m 625.06471,-132.5555 -38.54206,49.504858 h -16.27758 v -81.054678 h 17.96634 v 49.5444 l 38.54206,-49.5444 h 16.27758 v 81.054678 h -17.96634 z" /><path
         id="path943"
         style="fill:#ffffff;fill-opacity:1;fill-rule:evenodd;stroke:none;stroke-width:5.64802"
         d="m 711.90465,-83.053465 c 17.00053,-0.0113 30.82687,-13.911063 30.80428,-30.917235 -0.0226,-16.97229 -13.80375,-30.70827 -30.80428,-30.73086 h -23.95324 v -19.40658 h -17.97198 v 81.054675 z m 11.95685,-30.826875 c 0,7.1278 -5.78357,12.91137 -12.91136,12.91137 h -22.99873 v -25.82838 h 22.99873 c 7.12779,0 12.91136,5.78357 12.91136,12.91701" /></g><path
       id="path945"
       style="fill:#dc0068;fill-opacity:1;fill-rule:evenodd;stroke:none;stroke-width:5.648"
       d="m 810.66147,-204.3387 h -39.38345 v 161.696354 h 39.38345 z" /><path
       d="m 609.05867,-31.021604 c 42.15661,54.158591 107.9557,88.989755 181.90486,88.989755 73.94916,0 139.74825,-34.831164 181.91051,-88.989755 H 919.4045 C 885.48267,-0.1892181 840.42299,18.60165 790.96353,18.60165 c -49.44816,0 -94.51349,-18.7908681 -128.42968,-49.623254 z"
       style="fill:#00aca8;fill-opacity:1;fill-rule:evenodd;stroke:none;stroke-width:5.648"
       id="path949" /></g></svg>
