<?xml version="1.0" encoding="UTF-8"?>
<svg version="1.1" xmlns="http://www.w3.org/2000/svg" width="1038" height="1038">
<path d="M0 0 C342.54 0 685.08 0 1038 0 C1038 342.54 1038 685.08 1038 1038 C695.46 1038 352.92 1038 0 1038 C0 695.46 0 352.92 0 0 Z " fill="#CF1052" transform="translate(0,0)"/>
<path d="M0 0 C1.85500374 -0.01485695 1.85500374 -0.01485695 3.7474823 -0.03001404 C5.12027076 -0.0257758 6.49305827 -0.02121792 7.86584473 -0.01637268 C9.30968251 -0.02207406 10.75351578 -0.02903742 12.19734192 -0.03717041 C16.12085907 -0.05514165 20.04415307 -0.0539262 23.96769905 -0.04822803 C27.24076058 -0.04514224 30.51377886 -0.05122172 33.78683424 -0.05726677 C41.50640413 -0.07132306 49.22586337 -0.06974123 56.94543457 -0.05836487 C64.91569474 -0.0468788 72.88561863 -0.06096484 80.85583448 -0.08776134 C87.69412597 -0.10989343 94.53231169 -0.11656148 101.37063646 -0.11068493 C105.45698631 -0.10730859 109.54312049 -0.10977517 113.62944031 -0.12693596 C117.47089353 -0.14236386 121.31184708 -0.1384965 125.15328026 -0.11963081 C126.56462188 -0.11593348 127.97600019 -0.11908665 129.38730812 -0.1295166 C131.31065821 -0.14264766 133.2341366 -0.12881997 135.1574707 -0.11352539 C136.77352077 -0.11321146 136.77352077 -0.11321146 138.42221832 -0.1128912 C141.07873535 0.38768005 141.07873535 0.38768005 142.92500496 2.29571438 C144.18031625 4.57186845 144.4579954 5.87176609 144.46691895 8.45018005 C144.47637543 9.23779724 144.48583191 10.02541443 144.49557495 10.8368988 C144.48646591 12.09953552 144.48646591 12.09953552 144.47717285 13.38768005 C144.48147812 14.69672302 144.48147812 14.69672302 144.48587036 16.0322113 C144.48790902 17.87466583 144.48239299 19.7171421 144.46984863 21.55955505 C144.45379189 24.37775627 144.46970373 27.19452338 144.4888916 30.01268005 C144.48690913 31.80434988 144.48306539 33.59601882 144.47717285 35.38768005 C144.48324554 36.22943787 144.48931824 37.07119568 144.49557495 37.9384613 C144.48139023 39.11988708 144.48139023 39.11988708 144.46691895 40.32518005 C144.46453217 41.01482849 144.46214539 41.70447693 144.45968628 42.4150238 C143.90188789 45.30343908 143.33334653 46.4340029 141.07873535 48.38768005 C138.03272042 48.98226038 135.01963321 48.89195132 131.92565918 48.84178162 C130.5204879 48.84265778 130.5204879 48.84265778 129.08692932 48.84355164 C125.98616665 48.84076175 122.88636163 48.80962672 119.7857666 48.77830505 C117.63771591 48.77084589 115.48965843 48.76515143 113.34159851 48.76115417 C107.68447117 48.74587237 102.02775379 48.70656832 96.37078857 48.66233826 C90.5996658 48.62144062 84.82847686 48.60315492 79.05725098 48.58299255 C67.73086988 48.54007667 56.40490082 48.46970571 45.07873535 48.38768005 C45.07873535 59.93768005 45.07873535 71.48768005 45.07873535 83.38768005 C50.38580566 83.35287537 55.69287598 83.31807068 61.1607666 83.2822113 C64.51950154 83.26688576 67.87819347 83.25244415 71.23693848 83.24119568 C76.57011855 83.22325031 81.90314436 83.20200315 87.23620605 83.16136169 C91.53503296 83.12880618 95.83369447 83.1108351 100.13263512 83.10304832 C101.7741322 83.09749794 103.41562006 83.08665956 105.05704689 83.07048988 C107.35329495 83.04876574 109.64885643 83.04571095 111.94519043 83.04710388 C113.25313065 83.04044205 114.56107086 83.03378021 115.90864563 83.0269165 C119.07873535 83.38768005 119.07873535 83.38768005 120.99932861 84.68411255 C122.88092769 87.65373552 122.52544979 91.04195277 122.5123291 94.45018005 C122.51757095 95.23787781 122.52281281 96.02557556 122.5282135 96.83714294 C122.53463286 98.5014376 122.53329776 100.16577763 122.52478027 101.83006287 C122.51626524 104.37873407 122.54503734 106.92516759 122.57678223 109.47361755 C122.57839421 111.09080438 122.57781677 112.70799518 122.5748291 114.32518005 C122.58606308 115.08774109 122.59729706 115.85030212 122.60887146 116.63597107 C122.53948116 121.89399067 122.53948116 121.89399067 120.48884583 124.09124756 C117.20794729 125.85608926 114.73494434 125.74776507 111.01525879 125.72825623 C109.96099701 125.72891335 109.96099701 125.72891335 108.88543701 125.72958374 C106.56937587 125.72749879 104.25404456 125.70418264 101.93811035 125.6806488 C100.32957352 125.67505178 98.72103157 125.67078218 97.11248779 125.66778564 C92.8840517 125.65634519 88.65592598 125.62688506 84.4276123 125.59367371 C79.35153619 125.55755226 74.27535615 125.54380784 69.19918823 125.52631378 C61.4921549 125.49724703 53.78580227 125.43975483 46.07873535 125.38768005 C46.07873535 137.26768005 46.07873535 149.14768005 46.07873535 161.38768005 C50.51609131 161.3719696 50.51609131 161.3719696 55.04309082 161.35594177 C64.79802967 161.322858 74.55297095 161.3007328 84.30795097 161.28405571 C90.22457716 161.27360171 96.14114605 161.25941311 102.05773926 161.23680115 C107.76354666 161.2151303 113.46929883 161.20312361 119.1751442 161.19792557 C121.35612992 161.19421943 123.53711249 161.18698269 125.7180748 161.17621994 C128.76398086 161.16178154 131.80965626 161.15969889 134.85559082 161.16062927 C135.76477264 161.15343872 136.67395447 161.14624817 137.61068726 161.13883972 C143.85063103 161.15957573 143.85063103 161.15957573 146.07873535 163.38768005 C146.34616089 165.240448 146.34616089 165.240448 146.3692627 167.51438904 C146.3820224 168.36544724 146.3947821 169.21650543 146.40792847 170.09335327 C146.41015411 171.01419205 146.41237976 171.93503082 146.41467285 172.8837738 C146.42465805 174.30050133 146.42465805 174.30050133 146.43484497 175.74584961 C146.44498116 177.74566191 146.44966169 179.7455081 146.44934082 181.74534607 C146.45371317 184.80963209 146.49002012 187.87247729 146.5279541 190.93650818 C146.53382215 192.87725845 146.53779162 194.81801558 146.53967285 196.7587738 C146.55404388 197.67758835 146.56841492 198.59640289 146.58322144 199.5430603 C146.57706818 200.39727066 146.57091492 201.25148102 146.5645752 202.13157654 C146.56742523 202.88277267 146.57027527 203.63396881 146.57321167 204.40792847 C146.07873535 206.38768005 146.07873535 206.38768005 144.42500496 207.98718452 C141.44411336 209.76648787 139.50701065 209.76753337 136.04394531 209.77536011 C134.80734665 209.78526474 133.57074799 209.79516937 132.29667664 209.80537415 C130.92910667 209.80113617 129.56153767 209.79657832 128.19396973 209.79173279 C126.75160696 209.79743592 125.30924871 209.80439997 123.86689758 209.81253052 C119.95163646 209.8304822 116.03659921 209.82928999 112.12130928 209.82358813 C108.8532625 209.82049957 105.58525894 209.82658492 102.3172183 209.83262688 C94.60861847 209.8466767 86.90012945 209.84510667 79.19152832 209.83372498 C71.23660393 209.82223921 63.2820165 209.83632591 55.32713652 209.86312145 C48.49815097 209.88526395 41.66927131 209.89191924 34.8402524 209.88604504 C30.76115125 209.88267124 26.68226618 209.88511853 22.60319519 209.90229607 C18.76829169 209.91774053 14.93388831 209.91383804 11.09900475 209.89499092 C9.69130742 209.89129823 8.28357324 209.89443337 6.87590981 209.90487671 C4.9551527 209.91803929 3.03426686 209.90416033 1.11352539 209.8888855 C0.03837929 209.88867621 -1.03676682 209.88846693 -2.1444931 209.8882513 C-4.92126465 209.38768005 -4.92126465 209.38768005 -7.26711369 207.86445045 C-9.57594949 204.40741641 -9.47244278 201.27611541 -9.42247009 197.25814819 C-9.42800449 196.43196961 -9.43353889 195.60579104 -9.43924099 194.75457674 C-9.4528702 191.98215223 -9.43786625 189.21062442 -9.42297363 186.43821716 C-9.42675596 184.45236834 -9.43225528 182.46652214 -9.43934631 180.48068237 C-9.45332855 175.08408389 -9.44211205 169.68780323 -9.4256351 164.29122233 C-9.41180532 158.64983403 -9.41824224 153.00846456 -9.42176819 147.36706543 C-9.42447173 137.89366012 -9.41098154 128.42038141 -9.38781738 118.94700623 C-9.36119912 107.9849365 -9.35946247 97.02307839 -9.37120575 86.06098741 C-9.38197354 75.52640501 -9.3758048 64.99189937 -9.36165047 54.45732307 C-9.35588277 49.96892552 -9.35597948 45.48058399 -9.36071587 40.99218559 C-9.36547762 35.71033848 -9.35541728 30.42872399 -9.33376122 25.14692116 C-9.3281825 23.20505432 -9.32773793 21.26316517 -9.33271408 19.32129669 C-9.33864118 16.67734646 -9.32621177 14.03411371 -9.3089447 11.39022827 C-9.31495475 10.61572372 -9.32096479 9.84121917 -9.32715696 9.04324478 C-9.29279396 6.16409286 -9.2392899 3.93214558 -7.76711369 1.41175079 C-5.11364316 -0.06038559 -3.02985414 0.00683354 0 0 Z " fill="#FEFDFD" transform="translate(138.9212646484375,462.61231994628906)"/>
<path d="M0 0 C0.72150238 -0.0033284 1.44300476 -0.0066568 2.18637085 -0.01008606 C3.71099209 -0.01513393 5.23562431 -0.01749505 6.76025391 -0.01733398 C9.05781018 -0.01950468 11.35487327 -0.03763899 13.65234375 -0.05664062 C38.13531322 -0.15428091 60.48063372 8.19334298 78.4609375 25.16796875 C82.4057482 29.60503788 82.4057482 29.60503788 82.7734375 33.35546875 C81.61078227 38.49966973 77.63125049 41.85557162 74.05517578 45.49853516 C72.16894954 47.47372889 70.3621927 49.51069762 68.55078125 51.5546875 C67.14629872 53.11370064 65.7413483 54.67229238 64.3359375 56.23046875 C63.33324829 57.37491455 63.33324829 57.37491455 62.31030273 58.54248047 C59.21051057 61.92136464 57.20182224 63.91494515 52.80078125 65.41796875 C48.59130973 65.10287381 47.21043177 63.9630203 44.1484375 61.10546875 C32.8046959 51.12732122 22.40826824 46.28165088 7.22265625 46.81640625 C1.01756869 47.39632098 -2.43568961 49.22234883 -7.0390625 53.48046875 C-9.01154607 57.01450181 -9.03032311 59.16770375 -8.5390625 63.16796875 C-6.60311271 69.21781185 -2.90304941 71.34776147 2.4609375 74.16796875 C6.29914831 75.77997498 10.20997493 77.13521254 14.1484375 78.48046875 C16.38194724 79.26698982 18.61501358 80.05477101 20.84765625 80.84375 C21.95931152 81.23385254 23.0709668 81.62395508 24.21630859 82.02587891 C74.09303451 99.58218619 74.09303451 99.58218619 85.2734375 121.29296875 C92.73732062 137.34643539 92.09790343 155.09559332 86.3359375 171.60546875 C79.59776073 188.37210158 66.01128595 200.79873621 49.59765625 207.89453125 C28.23247748 216.60896467 1.33484358 219.78573013 -20.5390625 211.16796875 C-21.1872998 210.91595703 -21.83553711 210.66394531 -22.50341797 210.40429688 C-35.79053222 205.15863851 -47.61794216 198.43379733 -58.5390625 189.16796875 C-59.17585938 188.65363281 -59.81265625 188.13929688 -60.46875 187.609375 C-63.67716154 184.97847754 -66.66515567 182.16091315 -69.5390625 179.16796875 C-70.43625 178.23984375 -70.43625 178.23984375 -71.3515625 177.29296875 C-72.5390625 175.16796875 -72.5390625 175.16796875 -72.57421875 172.2890625 C-71.25323242 168.30616409 -68.97690346 166.01659689 -65.9765625 163.23046875 C-65.43298096 162.70686768 -64.88939941 162.1832666 -64.3293457 161.64379883 C-60.76627728 158.23681569 -57.10993437 154.94249225 -53.33984375 151.765625 C-51.40008595 150.04466851 -49.67659688 148.19374112 -47.9140625 146.29296875 C-45.75474114 144.14339602 -44.43867467 143.12311461 -41.6015625 141.85546875 C-36.78768798 142.34668044 -34.16184317 145.11439748 -30.5390625 148.16796875 C-18.65219486 157.81144329 -6.62671947 166.57614246 9.2734375 166.54296875 C10.07152832 166.54135742 10.86961914 166.53974609 11.69189453 166.53808594 C19.02470786 166.38528778 24.13308492 164.8131849 29.8984375 160.23046875 C33.16387518 155.92009101 34.06982243 151.78235509 33.875 146.43359375 C33.08057138 142.08672014 30.89777309 139.82172787 27.4609375 137.16796875 C19.04259179 131.7991912 9.61444137 128.71698658 0.2734375 125.35546875 C-22.91153024 116.96711368 -46.95463252 105.79601891 -58.18164062 82.50366211 C-64.63912219 68.45714836 -66.17381942 52.87164126 -60.85546875 38.12109375 C-54.03578111 22.8223286 -42.05621638 11.35700351 -26.43017578 5.35839844 C-17.70153687 2.29620086 -9.30105625 0.01514562 0 0 Z " fill="#FEFDFE" transform="translate(380.5390625,458.83203125)"/>
<path d="M0 0 C1.0280928 -0.01283524 2.05618561 -0.02567047 3.11543274 -0.03889465 C4.23515976 -0.04628159 5.35488678 -0.05366852 6.50854492 -0.0612793 C7.65183762 -0.06935104 8.79513031 -0.07742279 9.97306824 -0.08573914 C12.39837111 -0.09959978 14.82369366 -0.11031302 17.24902344 -0.11816406 C20.96285905 -0.13537683 24.67580487 -0.17924668 28.3894043 -0.22338867 C30.74161127 -0.23351493 33.09382583 -0.24203124 35.44604492 -0.2487793 C36.55969925 -0.26628738 37.67335358 -0.28379547 38.820755 -0.30183411 C39.85830429 -0.29890854 40.89585358 -0.29598297 41.96484375 -0.29296875 C42.87671951 -0.29883499 43.78859528 -0.30470123 44.72810364 -0.31074524 C47.95967976 0.33301629 49.11911321 1.65835648 51.17651367 4.17700195 C52.49414062 7.05395508 52.49414062 7.05395508 53.66479492 10.45825195 C53.88433838 11.08654404 54.10388184 11.71483612 54.33007812 12.36216736 C55.06098102 14.46340185 55.77492455 16.5699997 56.48901367 18.67700195 C57.01109501 20.18913016 57.53415109 21.70092213 58.05810547 23.21240234 C59.48185061 27.33107939 60.8899391 31.4549359 62.29321289 35.58062744 C63.1796148 38.18611742 64.06833836 40.79080436 64.95776367 43.39526367 C67.43228219 50.64260606 69.90368083 57.89100112 72.36791992 65.1418457 C76.69779715 77.8774427 81.06824456 90.59844541 85.48910522 103.30276489 C86.15137693 105.20646505 86.8127056 107.11049355 87.47305298 109.01486206 C88.3883252 111.6532298 89.30722426 114.29030434 90.22729492 116.92700195 C90.63250366 118.0972567 90.63250366 118.0972567 91.04589844 119.29115295 C92.24251573 122.70695185 93.5148119 125.96387767 95.17651367 129.17700195 C95.44165771 128.39187729 95.70680176 127.60675262 95.97998047 126.7978363 C102.13108137 108.58447306 108.28604812 90.372422 114.44671631 72.16229248 C117.31229373 63.69163035 120.17507482 55.22004016 123.0333252 46.74690247 C124.49488064 42.41679621 125.9598668 38.08785743 127.42602539 33.75930786 C128.08736614 31.80447546 128.7472233 29.84914044 129.40551758 27.89328003 C130.30960661 25.20785234 131.21895899 22.52426299 132.12963867 19.84106445 C132.38279846 19.0848027 132.63595825 18.32854095 132.89678955 17.54936218 C137.83506106 3.07130369 137.83506106 3.07130369 142.17651367 0.17700195 C144.49794006 -0.07023621 144.49794006 -0.07023621 147.25878906 -0.06591797 C148.29318619 -0.0689946 149.32758331 -0.07207123 150.39332581 -0.07524109 C151.50900436 -0.06805557 152.62468292 -0.06087006 153.77416992 -0.0534668 C154.91937607 -0.05300858 156.06458221 -0.05255035 157.24449158 -0.05207825 C159.66626013 -0.0490559 162.08802674 -0.04117014 164.50976562 -0.02880859 C168.22752731 -0.01055444 171.94503999 -0.00829889 175.6628418 -0.00854492 C178.01245334 -0.00362969 180.36206318 0.00219865 182.71166992 0.0090332 C183.82937271 0.01014603 184.9470755 0.01125885 186.09864807 0.0124054 C187.64551552 0.02197517 187.64551552 0.02197517 189.22363281 0.03173828 C190.13391739 0.03555008 191.04420197 0.03936188 191.98207092 0.04328918 C194.17651367 0.17700195 194.17651367 0.17700195 196.17651367 1.17700195 C195.60456871 7.21788361 193.79399688 12.31010502 191.55541992 17.92700195 C191.18437134 18.87605911 190.81332275 19.82511627 190.43103027 20.80293274 C189.62795283 22.85465543 188.82148485 24.90505358 188.01199341 26.95425415 C186.27192288 31.35951554 184.54834695 35.77117353 182.82359314 40.18244934 C181.92882586 42.47037038 181.03319647 44.75795443 180.13673401 47.04521179 C176.150347 57.22011092 172.22977744 67.41941302 168.33154297 77.62835693 C166.47992549 82.47742244 164.62490168 87.32518485 162.77026367 92.1730957 C162.39736206 93.14804993 162.02446045 94.12300415 161.64025879 95.12750244 C156.35830214 108.93442961 151.06309978 122.73633819 145.7409668 136.52783203 C144.90693508 138.68951624 144.07295078 140.85121874 143.23901367 143.01293945 C142.6188739 144.6202317 142.6188739 144.6202317 141.98620605 146.25999451 C139.36380567 153.06662122 136.76878306 159.88310677 134.19117737 166.70681763 C132.46399238 171.27378886 130.7252655 175.8363178 128.98483276 180.39825439 C128.16081923 182.56689379 127.34214405 184.73756986 126.52908325 186.91033936 C125.40568606 189.91087142 124.26397658 192.9038157 123.11791992 195.89575195 C122.79166626 196.78171051 122.4654126 197.66766907 122.12927246 198.58047485 C120.29742961 203.30083593 118.86911563 206.74354391 114.17651367 209.17700195 C111.21765256 209.72758773 108.33663923 209.76176588 105.33276367 209.7434082 C104.48605103 209.74960678 103.63933838 209.75580536 102.76696777 209.76219177 C100.9817825 209.76927666 99.19653096 209.76613916 97.41137695 209.75341797 C94.68471456 209.73954368 91.96148062 209.77364852 89.23510742 209.81176758 C87.49682533 209.81271878 85.75853897 209.81085988 84.02026367 209.8059082 C83.20867798 209.81916641 82.39709229 209.83242462 81.56091309 209.84608459 C77.61350147 209.78135374 75.67395776 209.5240972 72.36791992 207.21728516 C69.55423797 203.31367761 67.93635751 199.396648 66.27026367 194.90356445 C65.91285095 193.97296204 65.55543823 193.04235962 65.18719482 192.08355713 C64.00427073 188.99438462 62.84050083 185.89835417 61.67651367 182.80200195 C60.84279214 180.61419201 60.00780608 178.42686357 59.17163086 176.23999023 C57.40351771 171.60912817 55.64334626 166.97535901 53.8894043 162.33911133 C51.20395538 155.24257914 48.4974688 148.15420902 45.78588867 141.06762695 C42.21906056 131.7429429 38.65794096 122.41611178 35.10229492 113.0871582 C31.24873102 102.97904395 27.38153523 92.87630012 23.49554443 82.78060913 C22.62210401 80.51052882 21.75001179 78.23993445 20.87817383 75.96923828 C17.68801024 67.66651261 14.47580379 59.37276745 11.24153137 51.08711243 C9.38158572 46.31827573 7.52882541 41.54666254 5.67678833 36.77474976 C4.76775769 34.43801756 3.85543992 32.10256116 2.93966675 29.76846313 C1.65871854 26.502871 0.38916189 23.23305275 -0.87817383 19.9621582 C-1.26282303 18.98994324 -1.64747223 18.01772827 -2.04377747 17.01605225 C-4.09607043 11.68245323 -5.50098588 6.90076633 -5.82348633 1.17700195 C-4.1781282 -0.46835617 -2.26747922 0.02454294 0 0 Z " fill="#FEFDFE" transform="translate(736.823486328125,462.822998046875)"/>
<path d="M0 0 C0.97433487 -0.00615326 1.94866974 -0.01230652 2.95252991 -0.01864624 C4.00258713 -0.00427521 5.05264435 0.01009583 6.13452148 0.02490234 C7.2131395 0.02581879 8.29175751 0.02673523 9.40306091 0.02767944 C11.68362833 0.03372325 13.96418753 0.04949243 16.24462891 0.07421875 C19.7453315 0.11073258 23.24497649 0.11523817 26.74584961 0.11474609 C28.95874943 0.12457653 31.17164205 0.13623321 33.38452148 0.14990234 C34.96264366 0.15324081 34.96264366 0.15324081 36.57264709 0.15664673 C38.02942116 0.17578629 38.02942116 0.17578629 39.515625 0.1953125 C40.3726149 0.2029361 41.2296048 0.21055969 42.11256409 0.21841431 C44.19311523 0.48583984 44.19311523 0.48583984 46.19311523 2.48583984 C46.43921089 5.18386269 46.43921089 5.18386269 46.43362427 8.68667603 C46.43533312 9.3295026 46.43704197 9.97232917 46.4388026 10.63463533 C46.44210851 12.79820204 46.43107602 14.96146165 46.42016602 17.125 C46.41960214 18.67207329 46.419918 20.21914712 46.42105103 21.76622009 C46.42162646 25.9746917 46.40984145 30.18305002 46.39590311 34.39149523 C46.38342739 38.78641217 46.38222775 43.18133151 46.37985229 47.57626343 C46.37362821 55.90251587 46.35720488 64.22871598 46.33715332 72.55494535 C46.31482314 82.03243406 46.30380815 91.50992522 46.29376245 100.98743367 C46.27283943 120.4869321 46.23764548 139.98638177 46.19311523 159.48583984 C47.21597626 159.48139862 48.23883728 159.4769574 49.29269409 159.47238159 C58.91641589 159.43189719 68.54012048 159.40188517 78.163908 159.3822155 C83.11199356 159.37176331 88.06001055 159.35757802 93.00805664 159.33496094 C97.78019004 159.31328362 102.55225736 159.30128204 107.32443619 159.29608536 C109.14816453 159.29238039 110.97188912 159.28514584 112.79558945 159.27437973 C115.34338035 159.25993264 117.89089565 159.25785904 120.4387207 159.25878906 C121.19829071 159.25159851 121.95786072 159.24440796 122.740448 159.23699951 C127.96501091 159.25773552 127.96501091 159.25773552 130.19311523 161.48583984 C130.45381165 163.45922852 130.45381165 163.45922852 130.46777344 165.90380859 C130.47730545 166.81815674 130.48683746 167.73250488 130.49665833 168.67456055 C130.49529121 170.1589563 130.49529121 170.1589563 130.49389648 171.67333984 C130.49818161 172.68678467 130.50246674 173.70022949 130.50688171 174.74438477 C130.51263133 176.88964083 130.51312065 179.03491639 130.50878906 181.18017578 C130.50562804 184.47250407 130.52908452 187.76393519 130.55444336 191.05615234 C130.55671608 193.13688037 130.55741998 195.21761083 130.55639648 197.29833984 C130.56560623 198.28793701 130.57481598 199.27753418 130.58430481 200.29711914 C130.57807602 201.21146729 130.57184723 202.12581543 130.56542969 203.06787109 C130.56605911 203.87458252 130.56668854 204.68129395 130.56733704 205.51245117 C130.44384384 206.16366943 130.32035065 206.8148877 130.19311523 207.48583984 C126.85284023 209.71268985 125.78397067 209.73962894 121.88600159 209.75326538 C120.23510529 209.76606033 120.23510529 209.76606033 118.55085754 209.77911377 C117.3429808 209.7782074 116.13510406 209.77730103 114.890625 209.77636719 C113.61889435 209.78308441 112.3471637 209.78980164 111.03689575 209.79672241 C107.54722749 209.81440008 104.05765729 209.81907849 100.56794858 209.82035398 C97.65535982 209.82225268 94.74279393 209.82960977 91.83021396 209.83669817 C84.95922592 209.85298605 78.08829029 209.85786673 71.21728516 209.85644531 C64.1275024 209.8552434 57.03802383 209.87635402 49.94831806 209.90793264 C43.8624559 209.93407482 37.77669323 209.9448135 31.69077533 209.94353449 C28.05541 209.94302429 24.42031502 209.94873909 20.78500557 209.96989059 C16.7314584 209.99283161 12.67859399 209.98376485 8.625 209.97167969 C7.41914749 209.9829187 6.21329498 209.99415771 4.97090149 210.0057373 C3.86748413 209.99734833 2.76406677 209.98895935 1.62721252 209.98031616 C0.6687571 209.9814057 -0.28969831 209.98249523 -1.27719784 209.98361778 C-4.72520602 209.30513762 -5.82262092 208.38817151 -7.80688477 205.48583984 C-8.19759988 202.66020509 -8.34342445 200.22516583 -8.30809021 197.40100098 C-8.31362461 196.57961152 -8.319159 195.75822206 -8.32486111 194.91194201 C-8.33848992 192.1556692 -8.32348655 189.40029842 -8.30859375 186.64404297 C-8.31237612 184.66966873 -8.31787548 182.69529714 -8.32496643 180.72093201 C-8.338949 175.35525648 -8.32773153 169.98990061 -8.31125522 164.62424278 C-8.29742381 159.01401888 -8.30386262 153.40381389 -8.30738831 147.7935791 C-8.31009194 138.37144813 -8.29660162 128.94944444 -8.2734375 119.52734375 C-8.24682685 108.62777764 -8.24508012 97.72842438 -8.25682586 86.82883692 C-8.26759804 76.35192289 -8.26142097 65.875086 -8.24727058 55.3981781 C-8.24150593 50.93572673 -8.24159724 46.47333173 -8.24633598 42.01087952 C-8.2511017 36.75775605 -8.24102083 31.5048662 -8.21938133 26.25178719 C-8.21380777 24.32162832 -8.21335336 22.39144703 -8.2183342 20.46128654 C-8.22427184 17.83082303 -8.21181134 15.20107746 -8.19456482 12.57067871 C-8.20057486 11.80297795 -8.20658491 11.03527719 -8.21277708 10.24431276 C-8.17455537 7.04861206 -7.997597 4.82625089 -6.42062569 2.01144218 C-4.23997214 -0.0501094 -2.97395694 -0.00988113 0 0 Z " fill="#FEFDFD" transform="translate(611.806884765625,462.51416015625)"/>
<path d="M0 0 C0.97110718 -0.00945648 1.94221436 -0.01891296 2.94274902 -0.02865601 C4.51312927 -0.01954697 4.51312927 -0.01954697 6.11523438 -0.01025391 C7.72960388 -0.01455917 7.72960388 -0.01455917 9.37658691 -0.01895142 C11.65291876 -0.02099365 13.92926809 -0.0154527 16.20556641 -0.00292969 C19.69538511 0.01312105 23.18404557 -0.00277368 26.67382812 -0.02197266 C28.88346611 -0.01999025 31.09310336 -0.01614664 33.30273438 -0.01025391 C34.34965454 -0.0163266 35.39657471 -0.02239929 36.47521973 -0.02865601 C37.93188049 -0.01447128 37.93188049 -0.01447128 39.41796875 0 C40.27273804 0.00238678 41.12750732 0.00477356 42.00817871 0.00723267 C44.20898438 0.38818359 44.20898438 0.38818359 45.82230473 1.41183376 C47.98766916 4.49799547 47.62488134 7.75446527 47.59666443 11.39073181 C47.60204997 12.2153504 47.6074355 13.03996899 47.61298424 13.88957602 C47.62733262 16.66261823 47.62014325 19.4351877 47.61303711 22.20825195 C47.61873709 24.19233079 47.6256999 26.17640634 47.63383484 28.16047668 C47.65182261 33.55713675 47.65058731 38.95363473 47.64489245 44.35031581 C47.64180867 48.85103076 47.64788401 53.35171421 47.6539312 57.85242468 C47.66799331 68.46780506 47.66640116 79.08310499 47.6550293 89.69848633 C47.64354635 100.65997608 47.65762298 111.62122122 47.68442577 122.58267874 C47.70655745 131.98486462 47.71322587 141.38697358 47.70734936 150.78918368 C47.70397252 156.40864291 47.706443 162.02794533 47.72360039 167.64738274 C47.73902708 172.93089493 47.73516155 178.21404381 47.71629524 183.49754143 C47.71259748 185.43899464 47.7157522 187.38047451 47.72618103 189.32190323 C47.73931169 191.96790941 47.7279145 194.61269872 47.71018982 197.25865173 C47.72459733 198.41706248 47.72459733 198.41706248 47.7392959 199.59887546 C47.69066893 203.11553089 47.48172864 205.03109295 45.31755924 207.86453342 C42.82765315 209.66373245 41.5521424 209.89384453 38.50390625 209.90576172 C37.5761438 209.91837036 36.64838135 209.930979 35.69250488 209.94396973 C34.69763062 209.9358728 33.70275635 209.92777588 32.67773438 209.91943359 C31.64966675 209.9232605 30.62159912 209.9270874 29.56237793 209.93103027 C27.39037089 209.93375033 25.21833115 209.92638265 23.04638672 209.90966797 C19.72093709 209.88826054 16.39764802 209.90946737 13.07226562 209.93505859 C10.96158377 209.93241534 8.85090326 209.9272904 6.74023438 209.91943359 C5.74536011 209.92753052 4.75048584 209.93562744 3.72546387 209.94396973 C2.33382019 209.92505676 2.33382019 209.92505676 0.9140625 209.90576172 C0.10005981 209.90257935 -0.71394287 209.89939697 -1.5526123 209.89611816 C-4.76288935 209.16764771 -5.79295397 208.00414737 -7.79101562 205.38818359 C-8.18171292 202.54830813 -8.32752399 200.09712177 -8.29222107 197.25865173 C-8.29775547 196.43247315 -8.30328986 195.60629458 -8.30899197 194.75508028 C-8.32262118 191.98265577 -8.30761723 189.21112796 -8.29272461 186.4387207 C-8.29650693 184.45287188 -8.30200626 182.46702568 -8.30909729 180.48118591 C-8.32307953 175.08458743 -8.31186303 169.68830677 -8.29538608 164.29172587 C-8.2815563 158.65033757 -8.28799321 153.0089681 -8.29151917 147.36756897 C-8.2942227 137.89416366 -8.28073252 128.42088495 -8.25756836 118.94750977 C-8.2309501 107.98544004 -8.22921345 97.02358193 -8.24095672 86.06149095 C-8.25172452 75.52690855 -8.24555578 64.99240291 -8.23140144 54.45782661 C-8.22563374 49.96942906 -8.22573046 45.48108753 -8.23046684 40.99268913 C-8.23522859 35.71084202 -8.22516826 30.42922753 -8.20351219 25.1474247 C-8.19793348 23.20555786 -8.19748891 21.26366871 -8.20246506 19.32180023 C-8.20839216 16.67785 -8.19596275 14.03461725 -8.17869568 11.39073181 C-8.18470572 10.61622726 -8.19071577 9.84172271 -8.19690794 9.04374832 C-8.13526394 3.8788197 -8.13526394 3.8788197 -6.40433598 1.41183376 C-4.19115758 0.00757426 -2.6139378 0.00729892 0 0 Z " fill="#FEFBFC" transform="translate(512.791015625,462.61181640625)"/>
<path d="M0 0 C16.5 0 33 0 50 0 C52.495625 4.846875 54.99125 9.69375 57.5625 14.6875 C63.19830607 25.63020778 68.84174611 36.56888175 74.5 47.5 C79.84552139 57.82707724 85.1769172 68.16133957 90.5 78.5 C95.59770077 88.40011669 100.69902289 98.29832787 105.81427002 108.18939209 C106.74236517 109.98522684 107.66892531 111.78184665 108.59521484 113.57861328 C111.57573883 119.35162819 114.58253379 125.10775523 117.6484375 130.8359375 C126.92642825 148.23729611 133.17620614 162.70866324 133.1875 182.6875 C133.19974609 183.80833984 133.21199219 184.92917969 133.22460938 186.08398438 C133.24300086 196.64682744 132.16538016 205.93822053 127.25 215.375 C126.92773438 216.04660156 126.60546875 216.71820313 126.2734375 217.41015625 C123.86846299 222.15485402 121.15841222 224.69046079 117 228 C110.75358511 216.1883568 104.58034334 204.34267789 98.49966431 192.44488525 C96.32405699 188.18845398 94.14453707 183.93402747 91.96484375 179.6796875 C91.53471481 178.84009491 91.10458588 178.00050232 90.66142273 177.13546753 C86.51942004 169.05469694 82.34174857 160.99275103 78.1550293 152.93505859 C73.60476713 144.17498936 69.08032813 135.40182302 64.5625 126.625 C59.21893369 116.24448877 53.8671087 105.86835936 48.5 95.5 C43.51624772 85.87185987 38.54369654 76.238034 33.58081055 66.59912109 C27.72675819 55.22953849 21.87005007 43.86133283 16 32.5 C15.689487 31.89860199 15.378974 31.29720398 15.05905151 30.67758179 C10.91958988 22.66250735 6.74855171 14.6655586 2.43554688 6.7421875 C0 2.21561119 0 2.21561119 0 0 Z " fill="#FEFDFD" transform="translate(196,144)"/>
<path d="M0 0 C8.45196042 5.83789899 14.97944758 13.2524041 17.61328125 23.3515625 C18.85654463 31.86603295 16.5412752 36.81960989 12.625 44.25 C12.13644531 45.20390625 11.64789063 46.1578125 11.14453125 47.140625 C8.71194843 51.87030501 6.22642533 56.57182987 3.7434082 61.27514648 C-2.61593282 73.32524568 -8.86273686 85.42959509 -15.0625 97.5625 C-16.02008342 99.43429538 -16.97776532 101.30604037 -17.93554688 103.17773438 C-19.66342831 106.55512033 -21.39101223 109.93265745 -23.11743164 113.31079102 C-23.62845177 114.31070824 -23.62845177 114.31070824 -24.14979553 115.33082581 C-24.77148811 116.55137126 -25.38742627 117.77485254 -26 119 C-29.5331558 117.8222814 -29.69992418 117.27671069 -31.3828125 114.1171875 C-31.82359131 113.29105957 -32.26437012 112.46493164 -32.71850586 111.61376953 C-33.18264893 110.70997559 -33.64679199 109.80618164 -34.125 108.875 C-34.60783447 107.94155762 -35.09066895 107.00811523 -35.58813477 106.04638672 C-46.10926938 85.25301569 -54.11351049 63.77999566 -54.3125 40.3125 C-54.34150391 39.19166016 -54.37050781 38.07082031 -54.40039062 36.91601562 C-54.49595965 24.24944367 -50.51578516 14.40527642 -42 5 C-29.99030246 -5.32315051 -14.28459469 -7.64235251 0 0 Z " fill="#FEFDFD" transform="translate(401,135)"/>
<path d="M0 0 C5.62858224 3.73593032 10.21213836 9.02514682 11.671875 15.7734375 C12.6621667 24.79609517 12.16203958 32.32914654 6.671875 39.7734375 C1.35699308 45.75692929 -4.21163838 49.14273486 -12.1484375 50.12109375 C-19.60323655 50.4928804 -25.2349256 49.1483125 -31.328125 44.7734375 C-36.71818138 39.82068758 -40.87366283 34.42807079 -41.796875 27.00390625 C-41.83124636 25.65664811 -41.84094894 24.30857299 -41.828125 22.9609375 C-41.82167969 22.25461182 -41.81523438 21.54828613 -41.80859375 20.82055664 C-41.5145252 12.39994244 -38.47189335 7.57275232 -32.515625 1.8984375 C-22.31133167 -6.30688046 -11.31578448 -6.24420232 0 0 Z " fill="#FDF8FA" transform="translate(896.328125,751.2265625)"/>
<path d="M0 0 C5.62858224 3.73593032 10.21213836 9.02514682 11.671875 15.7734375 C12.6621667 24.79609517 12.16203958 32.32914654 6.671875 39.7734375 C1.35699308 45.75692929 -4.21163838 49.14273486 -12.1484375 50.12109375 C-19.60323655 50.4928804 -25.2349256 49.1483125 -31.328125 44.7734375 C-36.71818138 39.82068758 -40.87366283 34.42807079 -41.796875 27.00390625 C-41.83124636 25.65664811 -41.84094894 24.30857299 -41.828125 22.9609375 C-41.82167969 22.25461182 -41.81523438 21.54828613 -41.80859375 20.82055664 C-41.5145252 12.39994244 -38.47189335 7.57275232 -32.515625 1.8984375 C-22.31133167 -6.30688046 -11.31578448 -6.24420232 0 0 Z " fill="#FDF8FA" transform="translate(836.328125,751.2265625)"/>
<path d="M0 0 C3.79139846 -0.11771717 7.58231735 -0.18775198 11.375 -0.25 C12.96634766 -0.30027344 12.96634766 -0.30027344 14.58984375 -0.3515625 C23.58870734 -0.461978 31.07749656 1.06360332 37.875 7.25 C43.86214182 13.9589958 45.76689659 19.67826912 45.44140625 28.75 C44.34789017 36.80137504 40.38396208 42.29579411 34.35546875 47.52734375 C27.00917407 52.12030079 20.52164113 52.42013986 12.0625 52.25 C11.00998047 52.24484375 9.95746094 52.2396875 8.87304688 52.234375 C1.15464979 52.15464979 1.15464979 52.15464979 0 51 C-0.09333705 49.40389018 -0.11745372 47.80366572 -0.11352539 46.20483398 C-0.11344986 45.18385117 -0.11337433 44.16286835 -0.11329651 43.11094666 C-0.10813522 42.0005452 -0.10297394 40.89014374 -0.09765625 39.74609375 C-0.0962413 38.61551041 -0.09482635 37.48492706 -0.09336853 36.32008362 C-0.08775019 32.69252935 -0.07519458 29.06503576 -0.0625 25.4375 C-0.05748736 22.98502693 -0.05292405 20.5325529 -0.04882812 18.08007812 C-0.0377748 12.05336455 -0.02101884 6.02668661 0 0 Z " fill="#FDF6F8" transform="translate(130,828)"/>
<path d="M0 0 C4.49625 -0.061875 8.9925 -0.12375 13.625 -0.1875 C15.03217285 -0.21481201 16.4393457 -0.24212402 17.88916016 -0.27026367 C19.01112793 -0.27775635 20.1330957 -0.28524902 21.2890625 -0.29296875 C23.00150146 -0.31653442 23.00150146 -0.31653442 24.74853516 -0.34057617 C29.07844642 0.11296236 32.44775101 1.55098847 35.64453125 4.53515625 C40.21604415 10.51328851 40.75225551 14.51866435 40 22 C38.78516306 25.56268241 37.25214936 28.30766194 33.859375 30.18359375 C33.24578125 30.45300781 32.6321875 30.72242188 32 31 C32.27263672 31.52956299 32.54527344 32.05912598 32.82617188 32.60473633 C34.05705352 35.00416652 35.2786072 37.40822679 36.5 39.8125 C36.92925781 40.64587891 37.35851562 41.47925781 37.80078125 42.33789062 C38.20683594 43.14033203 38.61289062 43.94277344 39.03125 44.76953125 C39.40830078 45.50792236 39.78535156 46.24631348 40.17382812 47.00708008 C41 49 41 49 41 52 C37.37 52 33.74 52 30 52 C29.46632813 50.78441406 28.93265625 49.56882812 28.3828125 48.31640625 C24.82769677 39.61408029 24.82769677 39.61408029 18.17578125 33.6484375 C15.14829913 33.32267977 15.14829913 33.32267977 11 34 C11 39.94 11 45.88 11 52 C7.37 52 3.74 52 0 52 C0 34.84 0 17.68 0 0 Z " fill="#FDF7F9" transform="translate(450,748)"/>
<path d="M0 0 C12 0 12 0 15.19140625 2.9375 C16.02445518 4.26583468 16.81338752 5.62258429 17.5625 7 C18.45442896 8.45912891 19.34770128 9.91743735 20.2421875 11.375 C20.91072754 12.51195312 20.91072754 12.51195312 21.59277344 13.671875 C23.94823605 17.56876804 26.58042016 21.26913851 29.1875 25 C30.775625 27.31 32.36375 29.62 34 32 C34.33 21.44 34.66 10.88 35 0 C38.3 0 41.6 0 45 0 C46 1 46 1 46.12025452 3.05641174 C46.11803391 3.96020065 46.11581329 4.86398956 46.11352539 5.79516602 C46.11344986 6.81614883 46.11337433 7.83713165 46.11329651 8.88905334 C46.10813522 9.9994548 46.10297394 11.10985626 46.09765625 12.25390625 C46.0962413 13.38448959 46.09482635 14.51507294 46.09336853 15.67991638 C46.08775019 19.30747065 46.07519458 22.93496424 46.0625 26.5625 C46.05748736 29.01497307 46.05292405 31.4674471 46.04882812 33.91992188 C46.0377748 39.94663545 46.02101884 45.97331339 46 52 C44.2475757 52.10624427 42.49328512 52.18199364 40.73876953 52.24487305 C39.76215363 52.29032761 38.78553772 52.33578217 37.77932739 52.38261414 C34.28208851 51.90116922 33.32828323 50.81003581 31.1796875 48.08203125 C30.03938857 46.35041722 28.93852324 44.59229974 27.875 42.8125 C26.76849916 41.08967031 25.6617234 39.36701717 24.5546875 37.64453125 C22.79511719 34.85048828 22.79511719 34.85048828 21 32 C18.03 27.71 15.06 23.42 12 19 C11.67 29.89 11.34 40.78 11 52 C7.37 52 3.74 52 0 52 C0 34.84 0 17.68 0 0 Z " fill="#FCF4F7" transform="translate(519,748)"/>
<path d="M0 0 C3.11869888 0.02820529 5.19968999 0.20373844 7.54394531 2.37939453 C10.66711142 6.22491802 13.1689367 10.48698422 15.70166016 14.734375 C18.07775281 18.62089636 20.70653629 22.32820903 23.3125 26.0625 C24.900625 28.3725 26.48875 30.6825 28.125 33.0625 C28.455 22.5025 28.785 11.9425 29.125 1.0625 C32.425 1.0625 35.725 1.0625 39.125 1.0625 C40.125 2.0625 40.125 2.0625 40.24525452 4.11891174 C40.24303391 5.02270065 40.24081329 5.92648956 40.23852539 6.85766602 C40.23844986 7.87864883 40.23837433 8.89963165 40.23829651 9.95155334 C40.23313522 11.0619548 40.22797394 12.17235626 40.22265625 13.31640625 C40.2212413 14.44698959 40.21982635 15.57757294 40.21836853 16.74241638 C40.21275019 20.36997065 40.20019458 23.99746424 40.1875 27.625 C40.18248736 30.07747307 40.17792405 32.5299471 40.17382812 34.98242188 C40.1627748 41.00913545 40.14601884 47.03581339 40.125 53.0625 C38.3725757 53.16874427 36.61828512 53.24449364 34.86376953 53.30737305 C33.88715363 53.35282761 32.91053772 53.39828217 31.90432739 53.44511414 C28.40708851 52.96366922 27.45328323 51.87253581 25.3046875 49.14453125 C24.16438857 47.41291722 23.06352324 45.65479974 22 43.875 C20.89349916 42.15217031 19.7867234 40.42951717 18.6796875 38.70703125 C16.92011719 35.91298828 16.92011719 35.91298828 15.125 33.0625 C12.155 28.7725 9.185 24.4825 6.125 20.0625 C5.795 30.9525 5.465 41.8425 5.125 53.0625 C1.495 53.0625 -2.135 53.0625 -5.875 53.0625 C-5.89964113 45.81762951 -5.9178318 38.57278318 -5.92993164 31.32788086 C-5.93497356 28.86107967 -5.94180691 26.39428148 -5.95043945 23.92749023 C-5.96251125 20.39045471 -5.96822956 16.85345855 -5.97265625 13.31640625 C-5.97781754 12.20600479 -5.98297882 11.09560333 -5.98829651 9.95155334 C-5.98837204 8.93057053 -5.98844757 7.90958771 -5.98852539 6.85766602 C-5.990746 5.95387711 -5.99296661 5.0500882 -5.99525452 4.11891174 C-5.77393669 0.33426742 -3.39495837 0.49529846 0 0 Z " fill="#FCF4F7" transform="translate(309.875,746.9375)"/>
<path d="M0 0 C1.92741709 -0.08731836 3.85597124 -0.14979408 5.78466797 -0.20166016 C7.39533646 -0.25780991 7.39533646 -0.25780991 9.0385437 -0.31509399 C12.41258422 0.04389827 13.33364886 0.64983359 15.4453125 3.2265625 C16.38041006 4.66636613 17.27240142 6.13485987 18.125 7.625 C19.11098047 9.17901951 20.09797763 10.73239438 21.0859375 12.28515625 C21.56643555 13.07164551 22.04693359 13.85813477 22.54199219 14.66845703 C24.7826771 18.25160185 27.26372805 21.64770524 29.75 25.0625 C31.1525 27.021875 32.555 28.98125 34 31 C34.33 20.77 34.66 10.54 35 0 C38.63 0 42.26 0 46 0 C46.02464113 7.24487049 46.0428318 14.48971682 46.05493164 21.73461914 C46.05997356 24.20142033 46.06680691 26.66821852 46.07543945 29.13500977 C46.08751125 32.67204529 46.09322956 36.20904145 46.09765625 39.74609375 C46.10281754 40.85649521 46.10797882 41.96689667 46.11329651 43.11094666 C46.11337204 44.13192947 46.11344757 45.15291229 46.11352539 46.20483398 C46.115746 47.10862289 46.11796661 48.0124118 46.12025452 48.94358826 C46 51 46 51 45 52 C41.8065179 52.80361147 39.19822098 52.77944448 36 52 C34.06665039 50.18920898 34.06665039 50.18920898 32.22265625 47.74609375 C31.19313843 46.3849646 31.19313843 46.3849646 30.14282227 44.99633789 C26.47441193 39.86674919 22.95936135 34.64732295 19.5 29.375 C18.77296875 28.27542969 18.0459375 27.17585937 17.296875 26.04296875 C15.52694059 23.36477852 13.76142025 20.68379424 12 18 C11.97494385 18.99443115 11.9498877 19.9888623 11.92407227 21.01342773 C11.83015118 24.69048747 11.72989381 28.3673515 11.62768555 32.04418945 C11.58427854 33.637893 11.54260781 35.2316448 11.50268555 36.82543945 C11.44512193 39.11163908 11.38138851 41.39759449 11.31640625 43.68359375 C11.29133751 44.7586039 11.29133751 44.7586039 11.26576233 45.85533142 C11.11387171 50.88612829 11.11387171 50.88612829 10 52 C8.50261876 52.0979057 7.00057108 52.12974864 5.5 52.125 C4.6853125 52.12757813 3.870625 52.13015625 3.03125 52.1328125 C1 52 1 52 0 51 C-0.09333705 49.40389018 -0.11745372 47.80366572 -0.11352539 46.20483398 C-0.11344986 45.18385117 -0.11337433 44.16286835 -0.11329651 43.11094666 C-0.10813522 42.0005452 -0.10297394 40.89014374 -0.09765625 39.74609375 C-0.0962413 38.61551041 -0.09482635 37.48492706 -0.09336853 36.32008362 C-0.08775019 32.69252935 -0.07519458 29.06503576 -0.0625 25.4375 C-0.05748736 22.98502693 -0.05292405 20.5325529 -0.04882812 18.08007812 C-0.0377748 12.05336455 -0.02101884 6.02668661 0 0 Z " fill="#FDF5F8" transform="translate(322,828)"/>
<path d="M0 0 C11 0 11 0 13.296875 1.6328125 C13.77640625 2.45523438 14.2559375 3.27765625 14.75 4.125 C15.67039063 5.59259766 15.67039063 5.59259766 16.609375 7.08984375 C16.96322266 7.68007324 17.31707031 8.27030273 17.68164062 8.87841797 C19.90475909 12.45599194 22.32460055 15.89895209 24.71582031 19.36547852 C27.8311169 23.89624388 30.9119406 28.45062677 34 33 C34.33 22.11 34.66 11.22 35 0 C37.97 0 40.94 0 44 0 C45 1 45 1 45.12025452 3.05641174 C45.11803391 3.96020065 45.11581329 4.86398956 45.11352539 5.79516602 C45.11344986 6.81614883 45.11337433 7.83713165 45.11329651 8.88905334 C45.10813522 9.9994548 45.10297394 11.10985626 45.09765625 12.25390625 C45.0962413 13.38448959 45.09482635 14.51507294 45.09336853 15.67991638 C45.08775019 19.30747065 45.07519458 22.93496424 45.0625 26.5625 C45.05748736 29.01497307 45.05292405 31.4674471 45.04882812 33.91992188 C45.0377748 39.94663545 45.02101884 45.97331339 45 52 C43.40610474 52.09489938 41.81057311 52.16257345 40.21484375 52.21875 C39.32659912 52.25935547 38.43835449 52.29996094 37.52319336 52.34179688 C34.36322735 51.91374149 33.50938607 50.96069621 31.5625 48.5 C30.34952926 46.68341823 29.16623412 44.84693404 28 43 C27.11798704 41.71460679 26.2294901 40.43364826 25.3359375 39.15625 C20.45629942 32.17052424 15.72714275 25.09071413 11 18 C10.67 29.22 10.34 40.44 10 52 C6.7 52 3.4 52 0 52 C0 34.84 0 17.68 0 0 Z " fill="#FEFCFD" transform="translate(176,748)"/>
<path d="M0 0 C3.3 0 6.6 0 10 0 C10 6.6 10 13.2 10 20 C17.92 20 25.84 20 34 20 C34 13.4 34 6.8 34 0 C37.3 0 40.6 0 44 0 C44 17.16 44 34.32 44 52 C40.37 52 36.74 52 33 52 C33 44.74 33 37.48 33 30 C25.41 30 17.82 30 10 30 C10 37.26 10 44.52 10 52 C6.7 52 3.4 52 0 52 C0 34.84 0 17.68 0 0 Z " fill="#FDF9FB" transform="translate(743,748)"/>
<path d="M0 0 C12.54 0 25.08 0 38 0 C38 2.97 38 5.94 38 9 C37 10 37 10 34.49975586 10.11352539 C33.41573486 10.10828857 32.33171387 10.10305176 31.21484375 10.09765625 C30.04501953 10.09443359 28.87519531 10.09121094 27.66992188 10.08789062 C26.43822266 10.07951172 25.20652344 10.07113281 23.9375 10.0625 C22.08415039 10.05573242 22.08415039 10.05573242 20.19335938 10.04882812 C17.12885883 10.03699608 14.06445279 10.02051173 11 10 C11 13.3 11 16.6 11 20 C12.43214844 19.98839844 13.86429688 19.97679687 15.33984375 19.96484375 C17.20572787 19.95546745 19.07161339 19.94636708 20.9375 19.9375 C21.88302734 19.92912109 22.82855469 19.92074219 23.80273438 19.91210938 C25.15141602 19.90727539 25.15141602 19.90727539 26.52734375 19.90234375 C27.77632446 19.89448853 27.77632446 19.89448853 29.05053711 19.88647461 C31 20 31 20 32 21 C32.1328125 22.8125 32.1328125 22.8125 32.125 25 C32.12886719 26.0828125 32.12886719 26.0828125 32.1328125 27.1875 C32 29 32 29 31 30 C29.5112814 30.08669432 28.018555 30.10703494 26.52734375 30.09765625 C25.62822266 30.09443359 24.72910156 30.09121094 23.80273438 30.08789062 C22.85720703 30.07951172 21.91167969 30.07113281 20.9375 30.0625 C19.98810547 30.05798828 19.03871094 30.05347656 18.06054688 30.04882812 C15.70700469 30.03700128 13.35349468 30.01906521 11 30 C11 34.29 11 38.58 11 43 C19.91 43 28.82 43 38 43 C38 45.97 38 48.94 38 52 C25.46 52 12.92 52 0 52 C0 34.84 0 17.68 0 0 Z " fill="#FDF5F7" transform="translate(130,748)"/>
<path d="M0 0 C12.21 0 24.42 0 37 0 C37 3.3 37 6.6 37 10 C28.42 10 19.84 10 11 10 C11 13.3 11 16.6 11 20 C17.6 20 24.2 20 31 20 C31 23.3 31 26.6 31 30 C24.07 30 17.14 30 10 30 C10 34.29 10 38.58 10 43 C19.24 43 28.48 43 38 43 C38 45.97 38 48.94 38 52 C25.46 52 12.92 52 0 52 C0 34.84 0 17.68 0 0 Z " fill="#FDF9FA" transform="translate(405,748)"/>
<path d="M0 0 C12.21 0 24.42 0 37 0 C37 3.3 37 6.6 37 10 C28.09 10 19.18 10 10 10 C10 13.3 10 16.6 10 20 C16.93 20 23.86 20 31 20 C31 23.3 31 26.6 31 30 C24.07 30 17.14 30 10 30 C10 34.29 10 38.58 10 43 C19.24 43 28.48 43 38 43 C38 45.97 38 48.94 38 52 C25.46 52 12.92 52 0 52 C0 34.84 0 17.68 0 0 Z " fill="#FEFBFC" transform="translate(360,748)"/>
<path d="M0 0 C23 0 23 0 31 4 C34.46350444 7.64112005 35.8688304 10.26200278 36.25 15.3125 C35.90243642 20.43906281 34.27954631 23.52658304 30.9375 27.375 C29 29 29 29 27 29 C27.5775 30.10859375 28.155 31.2171875 28.75 32.359375 C29.50042299 33.82269983 30.25039974 35.28625355 31 36.75 C31.3815625 37.47960937 31.763125 38.20921875 32.15625 38.9609375 C32.69765625 40.02441406 32.69765625 40.02441406 33.25 41.109375 C33.58515625 41.75874023 33.9203125 42.40810547 34.265625 43.07714844 C35 45 35 45 35 49 C32.6875 49.3125 32.6875 49.3125 30 49 C28.13045648 46.39411453 26.98265432 43.95047684 25.921875 40.921875 C24.61770131 37.39191155 23.47833467 34.85225885 21 32 C15.89741881 30.6307539 11.24261879 30.65316008 6 31 C6.01160156 32.21558594 6.02320313 33.43117188 6.03515625 34.68359375 C6.04453278 36.26822764 6.05363313 37.85286318 6.0625 39.4375 C6.07087891 40.23994141 6.07925781 41.04238281 6.08789062 41.86914062 C6.0965143 43.91295221 6.0522815 45.95683902 6 48 C5.505 48.495 5.505 48.495 5 49 C3.35 49 1.7 49 0 49 C0 32.83 0 16.66 0 0 Z " fill="#FCF2F5" transform="translate(580,831)"/>
<path d="M0 0 C12.21 0 24.42 0 37 0 C37 2.97 37 5.94 37 9 C28.09 9 19.18 9 10 9 C10 12.63 10 16.26 10 20 C16.93 20 23.86 20 31 20 C31 22.97 31 25.94 31 29 C24.07 29 17.14 29 10 29 C10 33.29 10 37.58 10 42 C11.93746094 41.98839844 13.87492188 41.97679687 15.87109375 41.96484375 C18.39322821 41.95546779 20.9153637 41.94636738 23.4375 41.9375 C24.71689453 41.92912109 25.99628906 41.92074219 27.31445312 41.91210938 C28.52939453 41.90888672 29.74433594 41.90566406 30.99609375 41.90234375 C32.12200928 41.89710693 33.2479248 41.89187012 34.40795898 41.88647461 C37 42 37 42 38 43 C38 45.97 38 48.94 38 52 C25.46 52 12.92 52 0 52 C0 34.84 0 17.68 0 0 Z " fill="#FEFCFD" transform="translate(183,828)"/>
<path d="M0 0 C2.55394506 1.39751874 4.37380641 2.56130641 6.4375 4.625 C6.21006695 7.58162966 5.82514062 9.17533688 3.875 11.4375 C3.400625 11.829375 2.92625 12.22125 2.4375 12.625 C-0.2632721 11.62185608 -2.55076901 10.63302647 -4.9375 9 C-8.34705584 7.21404218 -10.76322117 7.27321492 -14.5625 7.625 C-15.5525 8.285 -16.5425 8.945 -17.5625 9.625 C-17.81280977 12.20880177 -17.81280977 12.20880177 -17.5625 14.625 C-16.31344605 15.18959762 -15.06316299 15.75147564 -13.8125 16.3125 C-12.59046875 16.86357422 -12.59046875 16.86357422 -11.34375 17.42578125 C-9.40497272 18.2617428 -7.44399954 19.04726217 -5.46875 19.79296875 C1.63681344 22.51031913 5.94768817 24.64537633 9.4375 31.625 C9.84149154 36.87689007 9.32740343 40.19381474 6.4375 44.625 C1.44296432 49.508546 -2.94127191 51.64859466 -9.875 51.9375 C-18.50368081 51.69096626 -24.50145047 48.64707172 -30.5625 42.625 C-28.05288462 37.44489645 -28.05288462 37.44489645 -25.5625 35.625 C-22.569992 35.72818993 -21.26575004 36.85273834 -18.875 38.6875 C-14.61457175 41.1794486 -11.38779005 41.366648 -6.5625 40.625 C-3.92323536 39.71186892 -3.92323536 39.71186892 -2.5625 37.625 C-2.22852213 34.49913125 -2.22852213 34.49913125 -2.5625 31.625 C-3.14515625 31.47804688 -3.7278125 31.33109375 -4.328125 31.1796875 C-13.19530415 28.75376113 -23.42212088 25.7300629 -28.5625 17.625 C-29.51947706 12.72752916 -29.33919835 8.14603427 -27.0625 3.6875 C-18.75963212 -3.162366 -9.91317243 -4.82069136 0 0 Z " fill="#FDF8FA" transform="translate(676.5625,749.375)"/>
<path d="M0 0 C0.66 0.99 1.32 1.98 2 3 C0.35 5.31 -1.3 7.62 -3 10 C-7.75 8.125 -7.75 8.125 -10 7 C-16.54093522 6.18737872 -20.67994619 7.14035312 -26 11 C-29.65775603 14.7829765 -30.54942132 17.19266285 -30.5 22.4375 C-30.26331933 29.42746905 -28.52732272 32.53748042 -23.5625 37.375 C-18.03201932 39.8976754 -13.03861791 39.2464742 -7 39 C-7 34.71 -7 30.42 -7 26 C-3.7 26 -0.4 26 3 26 C3.16216064 28.91889148 3.28091202 31.82879225 3.375 34.75 C3.42527344 35.575 3.47554687 36.4 3.52734375 37.25 C3.58507622 39.63627527 3.55708554 41.67697865 3 44 C-3.04234971 49.34869131 -10.29708544 50.56116776 -18.1640625 50.3671875 C-26.52866047 49.28416793 -32.01992189 44.54890095 -37.40625 38.37890625 C-42.1460139 31.30411161 -41.67911738 23.19350714 -41 15 C-39.31913296 7.85913533 -33.76421424 3.158264 -28 -1 C-19.09217496 -6.17172755 -8.73555479 -5.02294401 0 0 Z " fill="#FDF5F8" transform="translate(614,751)"/>
<path d="M0 0 C2.4375 1.6875 2.4375 1.6875 4 3 C2.87548273 5.9719385 1.77706209 8.33440687 0 11 C-2.24482516 10.50114996 -4.1621284 9.92343936 -6.25 8.9375 C-10.79726971 7.38729442 -14.73664518 7.09465807 -19.1875 8.875 C-22.89553578 10.94713764 -24.7756545 12.62842777 -27 16.3125 C-28.85584707 23.15593606 -28.74349281 28.08669777 -25.24609375 34.234375 C-23.12608287 37.23827757 -21.3843501 38.52319268 -18 40 C-11.32207531 40.69948101 -11.32207531 40.69948101 -5 39 C-4.53101037 36.1840151 -4.53101037 36.1840151 -4.375 32.9375 C-4.30023438 31.83277344 -4.22546875 30.72804688 -4.1484375 29.58984375 C-4.09945312 28.73519531 -4.05046875 27.88054688 -4 27 C-1.03 27 1.94 27 5 27 C5.16216064 29.91889148 5.28091202 32.82879225 5.375 35.75 C5.42527344 36.575 5.47554688 37.4 5.52734375 38.25 C5.58509671 40.63712235 5.55943442 42.67658572 5 45 C-0.98712685 50.24180737 -7.4287762 51.48102385 -15.19140625 51.3125 C-22.57003246 50.49151238 -29.13321881 46.54939466 -34 41 C-38.81461596 33.28783402 -39.89464214 26.02868733 -39 17 C-36.57007902 9.00196411 -31.95089992 4.0005454 -24.9375 -0.25 C-16.70042086 -4.48621213 -8.08544477 -4.45524508 0 0 Z " fill="#FDF8FA" transform="translate(268,750)"/>
<path d="M0 0 C3.63 0 7.26 0 11 0 C14.79802944 8.78294309 18.11334999 17.68207085 21.3203125 26.69580078 C21.65289062 27.62505371 21.98546875 28.55430664 22.328125 29.51171875 C22.77526855 30.77181763 22.77526855 30.77181763 23.23144531 32.05737305 C23.840504 33.97296637 23.840504 33.97296637 25 35 C29.29 23.45 33.58 11.9 38 0 C41.63 0 45.26 0 49 0 C46.50793042 9.19128324 42.99379238 17.93545042 39.47485352 26.77001953 C38.43238703 29.38783959 37.39637908 32.00814647 36.36132812 34.62890625 C35.69828974 36.30223121 35.03489115 37.97541349 34.37109375 39.6484375 C34.06272079 40.42762543 33.75434784 41.20681335 33.43663025 42.00961304 C33.14615311 42.73782257 32.85567596 43.4660321 32.55639648 44.21630859 C32.30341293 44.85233002 32.05042938 45.48835144 31.78977966 46.14364624 C30.94326464 48.13335478 29.96700856 50.06598288 29 52 C26.03 52 23.06 52 20 52 C17.30887342 45.23871039 14.62169196 38.47586276 11.93725586 31.71191406 C11.02345225 29.41077126 10.10874396 27.1099875 9.19311523 24.80957031 C7.87766689 21.50419441 6.56547049 18.1975437 5.25390625 14.890625 C4.84346573 13.86132874 4.43302521 12.83203247 4.01014709 11.77154541 C3.62982834 10.81085144 3.24950958 9.85015747 2.85766602 8.86035156 C2.35469749 7.59460297 2.35469749 7.59460297 1.84156799 6.30328369 C1 4 1 4 0 0 Z " fill="#FDF8FA" transform="translate(245,828)"/>
<path d="M0 0 C0.66 0.66 1.32 1.32 2 2 C1.64700993 5.44165321 0.95418308 7.06872538 -1 10 C-6.75 9.125 -6.75 9.125 -9 8 C-15.01463095 7.12650588 -19.37977679 7.98299775 -24.3359375 11.52734375 C-28.30825028 15.04274732 -29.18704096 18.76594374 -29.5 23.875 C-29.32794123 29.30714118 -27.519483 32.92326552 -24 37 C-20.16629087 40.50510549 -16.34060619 40.37500877 -11.3671875 40.2421875 C-8.64616181 39.96379873 -6.49090894 39.09893042 -4 38 C-1.8125 38.125 -1.8125 38.125 0 39 C1.55924718 41.15324611 2.07236059 42.33970965 1.78125 44.99609375 C0.74864132 47.644735 -0.24838007 48.08575095 -2.8125 49.25 C-9.37448106 51.86437658 -15.96867854 52.24614923 -22.7421875 50.15234375 C-31.00270383 46.44892078 -36.49983184 40.30010636 -40 32 C-41.10102245 23.62826177 -40.60326439 15.24852054 -36 8 C-26.508192 -3.12019943 -13.21644422 -6.24777363 0 0 Z " fill="#FDF8FA" transform="translate(731,750)"/>
<path d="M0 0 C1.64453125 1.265625 1.64453125 1.265625 2.47265625 3.234375 C2.72694962 6.2396603 1.3179344 7.85592446 -0.35546875 10.265625 C-3.11823052 9.74294034 -5.68155635 9.15692913 -8.35546875 8.265625 C-13.38059948 7.73802952 -17.23597387 7.69570034 -21.79296875 10.015625 C-26.12569318 13.8199684 -27.88209805 16.66800769 -28.62890625 22.34375 C-28.91781002 28.52184592 -27.48143552 32.61572594 -23.35546875 37.265625 C-18.67038799 40.67295646 -13.96607003 41.02276496 -8.35546875 40.265625 C-5.84216502 39.46468205 -3.71730257 38.4716678 -1.35546875 37.265625 C2.67533694 42.64003258 2.67533694 42.64003258 2.54296875 45.328125 C1.28798648 48.03452155 -0.04542074 48.43546572 -2.79296875 49.515625 C-10.88620207 52.38556589 -16.75465403 52.31837672 -24.60546875 48.703125 C-31.91829482 44.71345738 -36.13152995 39.94079749 -39.35546875 32.265625 C-39.66669525 29.53468257 -39.83381443 27.10991785 -39.79296875 24.390625 C-39.78467041 23.68172119 -39.77637207 22.97281738 -39.76782227 22.24243164 C-39.51594732 14.45402805 -37.26538385 10.17019942 -32.16796875 4.515625 C-22.91518005 -4.05104589 -11.36907987 -5.1621768 0 0 Z " fill="#FDF9FA" transform="translate(415.35546875,829.734375)"/>
<path d="M0 0 C23 0 23 0 30.5 6 C32.93152614 10.86305228 32.71382537 15.67875632 32 21 C29.83075309 25.57952125 27.5654425 27.88726863 23 30 C19.88271185 30.35485767 16.81952237 30.28316227 13.6875 30.1875 C10.820625 30.125625 7.95375 30.06375 5 30 C5 36.27 5 42.54 5 49 C3.35 49 1.7 49 0 49 C0 32.83 0 16.66 0 0 Z " fill="#FDF9FB" transform="translate(492,831)"/>
<path d="M0 0 C2.36125183 0.24443054 2.36125183 0.24443054 5 1 C6.28462219 2.76374817 6.28462219 2.76374817 7.2199707 5.08911133 C7.75996452 6.39100151 7.75996452 6.39100151 8.31086731 7.7191925 C8.67878891 8.66392929 9.04671051 9.60866608 9.42578125 10.58203125 C9.81823532 11.54775558 10.21068939 12.51347992 10.61503601 13.50846863 C11.44179262 15.55345354 12.2590851 17.60228619 13.06762695 19.65454102 C14.30647844 22.79722467 15.57327969 25.92741968 16.84570312 29.05664062 C17.64489542 31.04360145 18.44247581 33.03121152 19.23828125 35.01953125 C19.61632401 35.95819534 19.99436676 36.89685944 20.38386536 37.8639679 C20.72810043 38.74135117 21.07233551 39.61873444 21.42700195 40.52270508 C21.731689 41.2924617 22.03637604 42.06221832 22.35029602 42.8553009 C23 45 23 45 23 49 C21.35 49 19.7 49 18 49 C17.32880451 47.5437455 16.66318193 46.08492133 16 44.625 C15.62875 43.81289063 15.2575 43.00078125 14.875 42.1640625 C14 40 14 40 14 38 C6.08 38.33 -1.84 38.66 -10 39 C-11.98 43.95 -11.98 43.95 -14 49 C-15.98 49 -17.96 49 -20 49 C-19.29091339 43.89119053 -17.22884168 39.3696636 -15.25390625 34.6484375 C-14.88273178 33.75258942 -14.51155731 32.85674133 -14.12913513 31.93374634 C-13.34537361 30.04508427 -12.55935829 28.15735611 -11.77124023 26.27050781 C-10.56487143 23.3806807 -9.36688058 20.48748553 -8.16992188 17.59375 C-7.40674561 15.75760643 -6.64309003 13.92166199 -5.87890625 12.0859375 C-5.52051163 11.22028168 -5.162117 10.35462585 -4.79286194 9.46273804 C-4.28740089 8.25600937 -4.28740089 8.25600937 -3.77172852 7.02490234 C-3.47718277 6.31828461 -3.18263702 5.61166687 -2.87916565 4.88363647 C-2 3 -2 3 0 0 Z " fill="#FDF5F8" transform="translate(549,831)"/>
<path d="M0 0 C4.91185714 2.55671182 7.7124516 6.10730087 9.74609375 11.19140625 C9.82859375 11.89265625 9.91109375 12.59390625 9.99609375 13.31640625 C10.14046875 14.53328125 10.28484375 15.75015625 10.43359375 17.00390625 C10.36193734 22.47026689 7.51566912 26.32647288 3.99609375 30.31640625 C-0.19161968 33.45719132 -4.34030283 33.96314347 -9.46875 33.79296875 C-13.96602611 32.947564 -16.9436855 30.63348006 -20.00390625 27.31640625 C-23.10394477 22.18196745 -23.94043827 17.19574617 -23.00390625 11.31640625 C-21.23673091 6.48042643 -18.27032488 3.16068534 -14.00390625 0.31640625 C-9.40259088 -1.21736554 -4.65611133 -1.58834207 0 0 Z " fill="#CF1455" transform="translate(828.00390625,757.68359375)"/>
<path d="M0 0 C5.08689459 2.5434473 9.5111842 6.56427122 11.8125 11.875 C11.874375 12.57625 11.93625 13.2775 12 14 C12.144375 15.216875 12.28875 16.43375 12.4375 17.6875 C12.36584359 23.15386064 9.51957537 27.01006663 6 31 C1.81228657 34.14078507 -2.33639658 34.64673722 -7.46484375 34.4765625 C-11.96211986 33.63115775 -14.93977925 31.31707381 -18 28 C-21.10003852 22.8655612 -21.93653202 17.87933992 -21 12 C-19.23282466 7.16402018 -16.26641863 3.84427909 -12 1 C-7.92683502 -0.35772166 -4.2588436 -0.51865848 0 0 Z " fill="#CF1455" transform="translate(886,757)"/>
<path d="M0 0 C3.3 0 6.6 0 10 0 C10 14.19 10 28.38 10 43 C17.59 43 25.18 43 33 43 C33 45.97 33 48.94 33 52 C22.11 52 11.22 52 0 52 C0 34.84 0 17.68 0 0 Z " fill="#FEFBFC" transform="translate(917,748)"/>
<path d="M0 0 C13.80156658 0 13.80156658 0 19.5703125 5.49609375 C23.22738563 9.68605468 24.43208534 13.24335136 24.33984375 18.80859375 C23.47906406 24.35913867 20.1641419 28.04968008 15.9375 31.5 C12 33 12 33 0 33 C0 22.11 0 11.22 0 0 Z " fill="#CF1354" transform="translate(141,837)"/>
<path d="M0 0 C2.85289551 1.40289174 5.19079881 2.92126756 7.44140625 5.171875 C7.06640625 7.296875 7.06640625 7.296875 6.44140625 9.171875 C2.44140625 9.171875 2.44140625 9.171875 -0.74609375 7.171875 C-4.94191245 4.63087273 -8.76292422 4.43123106 -13.55859375 5.171875 C-16.21703592 6.01707633 -16.21703592 6.01707633 -17.55859375 8.171875 C-17.89240189 11.79751314 -17.89240189 11.79751314 -17.55859375 15.171875 C-12.90537341 17.38608854 -8.3473354 19.30510757 -3.37109375 20.671875 C2.23414944 22.27586372 6.1202599 24.19015548 9.44140625 29.171875 C10.04461762 33.35518503 9.90091401 37.08356714 8.25390625 40.984375 C4.49095159 45.525872 1.11079804 47.91901894 -4.81640625 48.48046875 C-12.33614283 48.73112664 -17.76276782 48.51484704 -24.01953125 43.875 C-25.76487319 41.94360639 -26.35841501 40.76366292 -26.55859375 38.171875 C-25.89859375 37.511875 -25.23859375 36.851875 -24.55859375 36.171875 C-21.37532226 36.53286455 -19.40779201 37.86774798 -16.87109375 39.734375 C-12.43643131 42.57520159 -8.72606532 43.1920216 -3.55859375 42.171875 C-0.00359963 40.74781883 -0.00359963 40.74781883 2.44140625 38.171875 C3.67590697 35.18687358 3.67590697 35.18687358 3.44140625 32.171875 C1.41876155 29.59870891 -0.43550809 28.661736 -3.54296875 27.77734375 C-4.31382812 27.54337891 -5.0846875 27.30941406 -5.87890625 27.06835938 C-7.48116132 26.60082032 -9.08531382 26.13972875 -10.69140625 25.68554688 C-16.37644472 23.94320535 -20.4753988 21.54334045 -24.55859375 17.171875 C-26.15986449 13.96933353 -25.96560982 11.71872936 -25.55859375 8.171875 C-19.79245985 -1.18165817 -10.40652866 -3.36821996 0 0 Z " fill="#FCF4F7" transform="translate(664.55859375,831.828125)"/>
<path d="M0 0 C3.3 0 6.6 0 10 0 C10 17.16 10 34.32 10 52 C6.7 52 3.4 52 0 52 C0 34.84 0 17.68 0 0 Z " fill="#FEFEFE" transform="translate(428,828)"/>
<path d="M0 0 C3.3 0 6.6 0 10 0 C10 17.16 10 34.32 10 52 C6.7 52 3.4 52 0 52 C0 34.84 0 17.68 0 0 Z " fill="#FEFDFD" transform="translate(301,828)"/>
<path d="M0 0 C3.3 0 6.6 0 10 0 C10 17.16 10 34.32 10 52 C6.7 52 3.4 52 0 52 C0 34.84 0 17.68 0 0 Z " fill="#FEFBFC" transform="translate(498,748)"/>
<path d="M0 0 C3.3 0 6.6 0 10 0 C10 17.16 10 34.32 10 52 C6.7 52 3.4 52 0 52 C0 34.84 0 17.68 0 0 Z " fill="#FEFBFC" transform="translate(283,748)"/>
<path d="M0 0 C2.866875 -0.0825 5.73375 -0.165 8.6875 -0.25 C9.58170654 -0.28641602 10.47591309 -0.32283203 11.3972168 -0.36035156 C15.44692845 -0.41666694 17.50103852 -0.31241573 21.01953125 1.890625 C23.99088202 5.0553773 23.99088202 5.0553773 24.01953125 8.0234375 C23.95121094 8.79945313 23.88289062 9.57546875 23.8125 10.375 C23.75707031 11.14585937 23.70164062 11.91671875 23.64453125 12.7109375 C22.72519104 15.9759882 21.8358083 17.08637058 19 19 C15.73142287 19.48375699 12.5447342 19.3755666 9.25 19.25 C4.67125 19.12625 4.67125 19.12625 0 19 C0 12.73 0 6.46 0 0 Z " fill="#CF1253" transform="translate(586,837)"/>
<path d="M0 0 C2.536875 -0.103125 5.07375 -0.20625 7.6875 -0.3125 C8.47729248 -0.35802002 9.26708496 -0.40354004 10.08081055 -0.45043945 C14.2568263 -0.5322807 15.59711662 -0.33476043 18.95703125 2.45703125 C19.63121094 3.29621094 20.30539062 4.13539063 21 5 C21.33 5.33 21.66 5.66 22 6 C22.42086328 10.62949609 21.86788177 13.31272343 19 17 C15.34966094 19.54470752 11.51771313 19.2290681 7.25 19.125 C4.8575 19.08375 2.465 19.0425 0 19 C0 12.73 0 6.46 0 0 Z " fill="#D01656" transform="translate(497,837)"/>
<path d="M0 0 C1.65 0 3.3 0 5 0 C6.58681989 1.58681989 6.12728536 3.21248346 6.12939453 5.41210938 C6.13254669 6.34978149 6.13569885 7.28745361 6.13894653 8.25354004 C6.1369223 9.27330933 6.13489807 10.29307861 6.1328125 11.34375 C6.13376923 12.38317749 6.13472595 13.42260498 6.13571167 14.49353027 C6.13639363 16.69604554 6.13453827 18.89856279 6.13037109 21.10107422 C6.12502308 24.48539719 6.13031559 27.86958744 6.13671875 31.25390625 C6.13605797 33.38802113 6.13477681 35.52213592 6.1328125 37.65625 C6.13483673 38.67601929 6.13686096 39.69578857 6.13894653 40.74645996 C6.13579437 41.68413208 6.13264221 42.6218042 6.12939453 43.58789062 C6.12820114 44.83246033 6.12820114 44.83246033 6.12698364 46.10217285 C6 48 6 48 5 49 C3.35 49 1.7 49 0 49 C0 32.83 0 16.66 0 0 Z " fill="#FBEFF3" transform="translate(624,831)"/>
<path d="M0 0 C13.72237847 -0.41582965 13.72237847 -0.41582965 18 3 C18.94284754 6.45710764 19.34062315 8.85426758 18.3125 12.3125 C16.66351795 14.43261978 15.51567539 15.02984806 13 16 C9.765625 16.1953125 9.765625 16.1953125 6.25 16.125 C3.15625 16.063125 3.15625 16.063125 0 16 C0 10.72 0 5.44 0 0 Z " fill="#D01656" transform="translate(461,757)"/>
<path d="M0 0 C2.34847961 2.12798646 3.62551811 3.98065494 4.82421875 6.90625 C5.13037109 7.65003906 5.43652344 8.39382813 5.75195312 9.16015625 C6.06068359 9.93230469 6.36941406 10.70445312 6.6875 11.5 C7.00783203 12.27214844 7.32816406 13.04429687 7.65820312 13.83984375 C10 19.60196229 10 19.60196229 10 23 C4.06 23 -1.88 23 -8 23 C-6.875 16.25 -6.875 16.25 -5.37109375 12.6953125 C-5.05849609 11.94765625 -4.74589844 11.2 -4.42382812 10.4296875 C-4.09833984 9.66914062 -3.77285156 8.90859375 -3.4375 8.125 C-3.10814453 7.34125 -2.77878906 6.5575 -2.43945312 5.75 C-1.63203214 3.83091244 -0.81680231 1.9151135 0 0 Z " fill="#D11D5B" transform="translate(550,841)"/>
</svg>
