<?xml version="1.0" encoding="UTF-8"?>
<svg version="1.1" xmlns="http://www.w3.org/2000/svg" width="220" height="195">
<path d="M0 0 C72.6 0 145.2 0 220 0 C220 64.35 220 128.7 220 195 C147.4 195 74.8 195 0 195 C0 130.65 0 66.3 0 0 Z " fill="#FCFCFC" transform="translate(0,0)"/>
<path d="M0 0 C5.06766796 -0.68714142 5.06766796 -0.68714142 8 0 C12.99377726 5.24639162 15.7283035 13.4583637 18.75 19.9375 C19.72214313 22.00996702 20.69600546 24.08162879 21.671875 26.15234375 C22.0956543 27.05976318 22.51943359 27.96718262 22.95605469 28.90209961 C23.82884696 30.93486012 23.82884696 30.93486012 25 32 C25.62044189 30.65252686 25.62044189 30.65252686 26.25341797 29.27783203 C27.78836016 25.94731627 29.32908732 22.61950424 30.87158203 19.29248047 C31.53853067 17.85180649 32.20390558 16.41040288 32.86767578 14.96826172 C33.82172011 12.8961744 34.78138256 10.826772 35.7421875 8.7578125 C36.03809784 8.11192169 36.33400818 7.46603088 36.6388855 6.80056763 C37.88251141 4.13488854 38.90233187 2.09766813 41 0 C44.625 -0.125 44.625 -0.125 48 0 C49.40598718 4.52608765 48.55175132 6.72191373 46.39453125 10.859375 C45.82283203 11.97570313 45.25113281 13.09203125 44.66210938 14.2421875 C44.05173828 15.39976563 43.44136719 16.55734375 42.8125 17.75 C40.52996743 22.16073906 38.25634145 26.57580109 36 31 C35.55317871 31.86560547 35.10635742 32.73121094 34.64599609 33.62304688 C34.08452881 34.77643555 34.08452881 34.77643555 33.51171875 35.953125 C33.19033936 36.59926758 32.86895996 37.24541016 32.5378418 37.91113281 C31.03196 43.75966876 34.19635325 48.84311861 36.8515625 53.84765625 C37.62790808 55.35466118 38.40394043 56.86182751 39.1796875 58.36914062 C40.40383224 60.72411739 41.6324126 63.07660404 42.8671875 65.42602539 C44.06166089 67.70631884 45.23869227 69.99497222 46.4140625 72.28515625 C46.78794098 72.98423599 47.16181946 73.68331573 47.54702759 74.40357971 C49.11577163 77.47854386 50.04638551 79.49858496 49.72412109 82.98217773 C49.48516113 83.64805908 49.24620117 84.31394043 49 85 C46.36 85 43.72 85 41 85 C36.7417393 76.58540505 32.54395417 68.14500962 28.5 59.625 C28.15001953 58.89418213 27.80003906 58.16336426 27.43945312 57.41040039 C25 52.23637921 25 52.23637921 25 50 C24.34 50 23.68 50 23 50 C22.89945313 50.68481445 22.79890625 51.36962891 22.6953125 52.07519531 C21.85675661 55.60254769 20.46075663 58.53558515 18.875 61.796875 C18.41456299 62.74823334 18.41456299 62.74823334 17.94482422 63.71881104 C17.29859125 65.05131745 16.64961388 66.38249602 15.99804688 67.71240234 C14.9977667 69.75455948 14.00601487 71.80068708 13.015625 73.84765625 C8.15942757 83.84057243 8.15942757 83.84057243 7 85 C4.32941149 85.14115161 1.67567762 85.04247107 -1 85 C-1.7795464 82.72621119 -2.13867169 81.4312184 -1.39221191 79.11000061 C-1.04944214 78.45889816 -0.70667236 77.80779572 -0.35351562 77.13696289 C0.22203064 76.0204409 0.22203064 76.0204409 0.8092041 74.88136292 C1.23310425 74.08648972 1.65700439 73.29161652 2.09375 72.47265625 C2.96748358 70.77671108 3.84118036 69.08074695 4.71484375 67.38476562 C6.10698709 64.71874474 7.50381407 62.05524158 8.90283203 59.39282227 C10.24895003 56.82112351 11.57808232 54.24115899 12.90625 51.66015625 C13.33015015 50.86730728 13.75405029 50.07445831 14.1907959 49.25758362 C16.38017483 45.05685881 16.38017483 45.05685881 16.99658203 40.4453125 C15.56542638 36.93368706 13.90751676 33.56982652 12.1484375 30.21484375 C11.37207479 28.70003429 10.59604297 27.1850552 9.8203125 25.66992188 C8.59571358 23.29535266 7.36737755 20.92287082 6.1328125 18.5534668 C4.9400159 16.2583305 3.76215397 13.95601028 2.5859375 11.65234375 C2.21205902 10.94496567 1.83818054 10.23758759 1.45297241 9.5087738 C-1.09175504 4.49581348 -1.09175504 4.49581348 -0.58944702 1.7815094 C-0.3949295 1.1936113 -0.20041199 0.6057132 0 0 Z " fill="#060606" transform="translate(144,19)"/>
<path d="M0 0 C72.6 0 145.2 0 220 0 C220 2.31 220 4.62 220 7 C147.4 7 74.8 7 0 7 C0 4.69 0 2.38 0 0 Z " fill="#010101" transform="translate(0,188)"/>
<path d="M0 0 C72.6 0 145.2 0 220 0 C220 2.31 220 4.62 220 7 C147.4 7 74.8 7 0 7 C0 4.69 0 2.38 0 0 Z " fill="#000000" transform="translate(0,0)"/>
<path d="M0 0 C0.80103149 0.00202423 1.60206299 0.00404846 2.42736816 0.00613403 C3.24483521 0.00517731 4.06230225 0.00422058 4.90454102 0.00323486 C6.63627194 0.00255308 8.3680054 0.00440724 10.09973145 0.00857544 C12.75978298 0.01392374 15.41966566 0.00863041 18.07971191 0.00222778 C19.75809771 0.00288857 21.43648339 0.00416973 23.11486816 0.00613403 C23.91589966 0.0041098 24.71693115 0.00208557 25.54223633 0 C31.15616738 0.02399575 31.15616738 0.02399575 32.27111816 1.13894653 C32.39611816 4.63894653 32.39611816 4.63894653 32.27111816 8.13894653 C31.27111816 9.13894653 31.27111816 9.13894653 28.58728027 9.25247192 C27.41947021 9.24723511 26.25166016 9.24199829 25.04846191 9.23660278 C23.78840332 9.23338013 22.52834473 9.23015747 21.23010254 9.22683716 C19.88960708 9.21848057 18.54911229 9.21001561 17.20861816 9.20144653 C15.86421875 9.19643313 14.51981757 9.19186995 13.17541504 9.18777466 C9.87396383 9.1759415 6.57253556 9.15800539 3.27111816 9.13894653 C3.27111816 17.71894653 3.27111816 26.29894653 3.27111816 35.13894653 C11.12454596 35.0993566 11.12454596 35.0993566 18.97790527 35.04885864 C19.94993896 35.04636108 20.92197266 35.04386353 21.92346191 35.04129028 C23.42380981 35.03343506 23.42380981 35.03343506 24.95446777 35.02542114 C27.27111816 35.13894653 27.27111816 35.13894653 28.27111816 36.13894653 C28.39611816 39.63894653 28.39611816 39.63894653 28.27111816 43.13894653 C27.27111816 44.13894653 27.27111816 44.13894653 24.8626709 44.25247192 C23.82054443 44.24723511 22.77841797 44.24199829 21.70471191 44.23660278 C20.69207275 44.23410522 19.67943359 44.23160767 18.6361084 44.22903442 C17.34003662 44.21993042 16.04396484 44.21082642 14.70861816 44.20144653 C10.60424316 44.18082153 6.49986816 44.16019653 2.27111816 44.13894653 C2.27111816 54.03894653 2.27111816 63.93894653 2.27111816 74.13894653 C11.7700478 74.09935027 11.7700478 74.09935027 21.2689209 74.04885864 C22.44398193 74.04636108 23.61904297 74.04386353 24.82971191 74.04129028 C26.6442688 74.03343506 26.6442688 74.03343506 28.4954834 74.02542114 C31.27111816 74.13894653 31.27111816 74.13894653 32.27111816 75.13894653 C32.27111816 77.77894653 32.27111816 80.41894653 32.27111816 83.13894653 C19.73111816 83.13894653 7.19111816 83.13894653 -5.72888184 83.13894653 C-7.25161496 80.09348028 -6.86742308 76.92461252 -6.85827637 73.58401489 C-6.86090485 72.41555779 -6.86090485 72.41555779 -6.86358643 71.22349548 C-6.86799723 68.6419046 -6.86506994 66.0603819 -6.86169434 63.47879028 C-6.86236753 61.69042447 -6.86333768 59.90205874 -6.86459351 58.11369324 C-6.86606938 54.36355723 -6.86391921 50.61344501 -6.85925293 46.86331177 C-6.85355159 42.04537789 -6.85683791 37.22749967 -6.86282539 32.40956783 C-6.86643048 28.71654334 -6.86529274 25.02353216 -6.8626976 21.33050728 C-6.8620284 19.55341142 -6.86285652 17.77631437 -6.86517715 15.99921989 C-6.86770327 13.52094169 -6.86386388 11.042755 -6.85827637 8.56448364 C-6.8603006 7.82316193 -6.86232483 7.08184021 -6.8644104 6.3180542 C-6.83776985 -0.02710623 -6.29279704 0.02689744 0 0 Z " fill="#060606" transform="translate(100.7288818359375,19.861053466796875)"/>
<path d="M0 0 C0.47050781 0.40992187 0.94101563 0.81984375 1.42578125 1.2421875 C2.35970703 2.05042969 2.35970703 2.05042969 3.3125 2.875 C4.23482422 3.67550781 4.23482422 3.67550781 5.17578125 4.4921875 C7.13498212 6.1640447 7.13498212 6.1640447 10 8 C10.144375 7.21625 10.28875 6.4325 10.4375 5.625 C11 3 11 3 12 1 C15.39192363 1.59283621 17.2107757 2.76743189 19.75 5.0625 C20.36359375 5.61035156 20.9771875 6.15820312 21.609375 6.72265625 C22.06828125 7.14417969 22.5271875 7.56570312 23 8 C23.66 5.69 24.32 3.38 25 1 C25.99 1 26.98 1 28 1 C28.85949644 2.12415047 29.68114035 3.27741099 30.48266602 4.44360352 C34.94952167 9.05691107 40.092413 8.82247687 46.12249088 8.93257999 C48.8412998 8.94597814 51.55861262 8.92467509 54.27734375 8.90234375 C56.1730775 8.9117335 58.06879831 8.92419417 59.9644928 8.93959045 C64.93776503 8.97177184 69.91011371 8.96239014 74.88342285 8.94421387 C79.96470182 8.93304354 85.04574589 8.96137139 90.12695312 8.98632812 C100.08480017 9.02943933 110.04211875 9.0286227 120 9 C120 10.32 120 11.64 120 13 C108.87345829 13.11585605 97.7470601 13.20469636 86.62003803 13.25906086 C81.45326239 13.28515341 76.28689944 13.32054551 71.12036133 13.37719727 C66.13421257 13.43152881 61.14846073 13.46142311 56.1620388 13.47438622 C54.25979552 13.48362402 52.35757393 13.50166353 50.45549965 13.52865028 C47.79057523 13.56495626 45.12729019 13.56994478 42.4621582 13.56762695 C41.67597107 13.58560333 40.88978394 13.60357971 40.07977295 13.62210083 C35.93896105 13.58313916 34.26573974 13.23202604 31.09611511 10.46452332 C30.40439713 9.65123062 29.71267914 8.83793793 29 8 C28.34 8 27.68 8 27 8 C26.01 9.98 25.02 11.96 24 14 C20.39486597 11.93992341 17.19668988 9.6486859 14 7 C13.01 9.31 12.02 11.62 11 14 C7.05860922 12.33248852 4.2107188 9.77289351 1 7 C0.01 9.31 -0.98 11.62 -2 14 C-5.3859496 12.54887874 -7.41675821 10.58324179 -10 8 C-10.66 8 -11.32 8 -12 8 C-12.99 9.98 -13.98 11.96 -15 14 C-15.83144531 13.36771484 -15.83144531 13.36771484 -16.6796875 12.72265625 C-17.40414062 12.17480469 -18.12859375 11.62695312 -18.875 11.0625 C-19.59429687 10.51722656 -20.31359375 9.97195312 -21.0546875 9.41015625 C-22.94357079 7.96035376 -22.94357079 7.96035376 -25 7 C-25.66 9.31 -26.32 11.62 -27 14 C-27.83144531 13.3503125 -27.83144531 13.3503125 -28.6796875 12.6875 C-29.40414062 12.130625 -30.12859375 11.57375 -30.875 11 C-31.59429687 10.443125 -32.31359375 9.88625 -33.0546875 9.3125 C-34.8852085 7.81356623 -34.8852085 7.81356623 -37 8 C-37.99 9.98 -38.98 11.96 -40 14 C-40.55429687 13.57847656 -41.10859375 13.15695313 -41.6796875 12.72265625 C-42.40414062 12.17480469 -43.12859375 11.62695312 -43.875 11.0625 C-44.59429687 10.51722656 -45.31359375 9.97195312 -46.0546875 9.41015625 C-47.94357079 7.96035376 -47.94357079 7.96035376 -50 7 C-50.66 8.98 -51.32 10.96 -52 13 C-56.62 13 -61.24 13 -66 13 C-66 27.52 -66 42.04 -66 57 C-67.32 57 -68.64 57 -70 57 C-70 41.49 -70 25.98 -70 10 C-65.05 9.67 -60.1 9.34 -55 9 C-52.19151196 5.17399356 -52.19151196 5.17399356 -51 1 C-47.39486597 3.06007659 -44.19668988 5.3513141 -41 8 C-40.34 5.69 -39.68 3.38 -39 1 C-34.40693504 2.4859916 -31.56430755 4.85014682 -28 8 C-27.855625 7.21625 -27.71125 6.4325 -27.5625 5.625 C-27 3 -27 3 -26 1 C-22.56404834 2.52708963 -19.88087546 4.59927045 -17 7 C-15.68 5.02 -14.36 3.04 -13 1 C-9.05860922 2.66751148 -6.2107188 5.22710649 -3 8 C-2.814375 6.8553125 -2.814375 6.8553125 -2.625 5.6875 C-2 3 -2 3 0 0 Z " fill="#141414" transform="translate(83,123)"/>
<path d="M0 0 C2.64524181 1.09474483 4.62955171 2.35099249 7 4 C7 5.98 7 7.96 7 10 C6.01 10.495 6.01 10.495 5 11 C3.9790625 10.2884375 3.9790625 10.2884375 2.9375 9.5625 C-0.98218449 7.47756144 -4.62492695 7.33815201 -9 8 C-11.37040308 10.37040308 -11.34465793 11.06302753 -11.4375 14.3125 C-11.33028905 17.67356314 -11.15128129 18.78090296 -9.1875 21.625 C-6.33874022 23.74760533 -3.46214902 25.58146537 -0.4375 27.4375 C7.14510945 32.23028145 7.14510945 32.23028145 9 37 C9.70622009 42.93832375 9.90089797 48.09810428 7.3125 53.5625 C2.86146094 58.25413577 -0.65986481 61.09359691 -7.25 61.3125 C-12.33276817 61.27927929 -16.32714477 59.67285523 -20 56 C-20.04092937 53.66702567 -20.04241723 51.33294775 -20 49 C-16 51 -16 51 -14.140625 52.046875 C-10.49188865 53.67149483 -6.91065069 53.55251395 -3 53 C-0.25 51.75 -0.25 51.75 1 49 C1.60818487 45.86550874 1.621178 43.13412535 1 40 C-1.74960122 36.01781892 -5.47952573 34.11654218 -9.5625 31.6875 C-14.61518621 28.53467828 -17.5651546 25.86982211 -19 20 C-19.81386258 14.30296193 -19.30777998 9.85141064 -16 5 C-11.25140137 -0.32769602 -7.02474935 -1.25007351 0 0 Z " fill="#AD0B0B" transform="translate(35,20)"/>
<path d="M0 0 C11.88 0 23.76 0 36 0 C36 1.98 36 3.96 36 6 C35.67 6.33 35.34 6.66 35 7 C30.38 7 25.76 7 21 7 C21 24.16 21 41.32 21 59 C19.02 59 17.04 59 15 59 C15 41.51 15 24.02 15 6 C10.05 6 5.1 6 0 6 C0 4.02 0 2.04 0 0 Z " fill="#AB0404" transform="translate(48,21)"/>
<path d="M0 0 C0.86625 0.12375 1.7325 0.2475 2.625 0.375 C5.53367349 4.44080246 7.35398768 9.11218626 9.3125 13.6875 C9.63283203 14.42806641 9.95316406 15.16863281 10.28320312 15.93164062 C11.06693174 17.74474413 11.8463998 19.55968829 12.625 21.375 C15.71830534 17.66887002 17.65699169 13.50001712 19.75 9.1875 C23.50576923 1.49423077 23.50576923 1.49423077 24.625 0.375 C27.125 0.25 27.125 0.25 29.625 0.375 C30.625 1.375 30.625 1.375 30.73852539 4.05883789 C30.73328857 5.22664795 30.72805176 6.39445801 30.72265625 7.59765625 C30.71943359 8.85771484 30.71621094 10.11777344 30.71289062 11.41601562 C30.70453403 12.75651109 30.69606907 14.09700588 30.6875 15.4375 C30.6824866 16.78189942 30.67792342 18.1263006 30.67382812 19.47070312 C30.66199488 22.77217941 30.64550971 26.07356803 30.625 29.375 C29.305 29.375 27.985 29.375 26.625 29.375 C26.13 17.495 26.13 17.495 25.625 5.375 C24.61179687 7.84806641 24.61179687 7.84806641 23.578125 10.37109375 C22.67787639 12.5185618 21.77679134 14.66567933 20.875 16.8125 C20.4315625 17.90111328 19.988125 18.98972656 19.53125 20.11132812 C19.09296875 21.14580078 18.6546875 22.18027344 18.203125 23.24609375 C17.80512695 24.20443115 17.40712891 25.16276855 16.99707031 26.15014648 C15.625 28.375 15.625 28.375 13.46386719 29.19555664 C12.85704102 29.25477295 12.25021484 29.31398926 11.625 29.375 C10.70289902 27.5861241 9.78766718 25.79370729 8.875 24 C8.36453125 23.00226563 7.8540625 22.00453125 7.328125 20.9765625 C5.22643477 16.53216252 3.45085995 11.93964987 1.625 7.375 C1.295 14.635 0.965 21.895 0.625 29.375 C-0.695 29.375 -2.015 29.375 -3.375 29.375 C-3.39965881 25.40569011 -3.41784023 21.43640966 -3.42993164 17.46704102 C-3.43497057 16.11579614 -3.44180177 14.76455674 -3.45043945 13.41333008 C-3.46252419 11.47479566 -3.46769828 9.536222 -3.47265625 7.59765625 C-3.47789307 6.42984619 -3.48312988 5.26203613 -3.48852539 4.05883789 C-3.33913974 0.52723259 -3.33913974 0.52723259 0 0 Z " fill="#141414" transform="translate(31.375,146.625)"/>
<path d="M0 0 C2.72265625 0.47265625 2.72265625 0.47265625 5.0390625 3.2890625 C5.8060499 4.52661063 6.55416357 5.77601179 7.28515625 7.03515625 C7.65833984 7.64423828 8.03152344 8.25332031 8.41601562 8.88085938 C10.93947584 13.02811137 13.31371997 17.25701775 15.72265625 21.47265625 C16.05265625 14.54265625 16.38265625 7.61265625 16.72265625 0.47265625 C18.04265625 0.47265625 19.36265625 0.47265625 20.72265625 0.47265625 C20.72265625 9.71265625 20.72265625 18.95265625 20.72265625 28.47265625 C19.07265625 28.80265625 17.42265625 29.13265625 15.72265625 29.47265625 C14.32313115 27.32915702 12.92803429 25.18296977 11.53515625 23.03515625 C11.14779297 22.44283203 10.76042969 21.85050781 10.36132812 21.24023438 C7.23444155 16.4077733 4.53582445 11.53635901 1.72265625 6.47265625 C1.39265625 14.06265625 1.06265625 21.65265625 0.72265625 29.47265625 C-0.59734375 29.47265625 -1.91734375 29.47265625 -3.27734375 29.47265625 C-3.30200256 25.50334636 -3.32018398 21.53406591 -3.33227539 17.56469727 C-3.33731432 16.21345239 -3.34414552 14.86221299 -3.3527832 13.51098633 C-3.36486794 11.57245191 -3.37004203 9.63387825 -3.375 7.6953125 C-3.38023682 6.52750244 -3.38547363 5.35969238 -3.39086914 4.15649414 C-3.24352639 0.67318472 -3.24352639 0.67318472 0 0 Z " fill="#151515" transform="translate(101.27734375,146.52734375)"/>
<path d="M0 0 C2.39526367 0.11206055 2.39526367 0.11206055 5 1 C6.4855957 3.25317383 6.4855957 3.25317383 7.67578125 6.20703125 C8.11083984 7.26857422 8.54589844 8.33011719 8.99414062 9.42382812 C9.64672852 11.1012207 9.64672852 11.1012207 10.3125 12.8125 C10.9940918 14.47249023 10.9940918 14.47249023 11.68945312 16.16601562 C15 24.39508929 15 24.39508929 15 29 C13.68 29 12.36 29 11 29 C9.74335022 26.09399739 9 24.20395416 9 21 C4.38 21 -0.24 21 -5 21 C-5.33 22.65 -5.66 24.3 -6 26 C-6.33 26.99 -6.66 27.98 -7 29 C-8.32 29 -9.64 29 -11 29 C-9.70003768 22.24836325 -7.68141284 16.29283767 -4.9375 10 C-4.57333984 9.14277344 -4.20917969 8.28554687 -3.83398438 7.40234375 C-1.15647755 1.15647755 -1.15647755 1.15647755 0 0 Z " fill="#121212" transform="translate(78,147)"/>
<path d="M0 0 C1.48831242 0.00667405 2.97660807 0.01863442 4.46484375 0.03515625 C5.22345703 0.03966797 5.98207031 0.04417969 6.76367188 0.04882812 C8.64326246 0.06064945 10.52281274 0.07858547 12.40234375 0.09765625 C12.40234375 1.41765625 12.40234375 2.73765625 12.40234375 4.09765625 C8.44234375 4.09765625 4.48234375 4.09765625 0.40234375 4.09765625 C0.40234375 6.73765625 0.40234375 9.37765625 0.40234375 12.09765625 C4.03234375 12.09765625 7.66234375 12.09765625 11.40234375 12.09765625 C11.40234375 13.41765625 11.40234375 14.73765625 11.40234375 16.09765625 C7.77234375 16.09765625 4.14234375 16.09765625 0.40234375 16.09765625 C0.40234375 19.06765625 0.40234375 22.03765625 0.40234375 25.09765625 C4.36234375 25.09765625 8.32234375 25.09765625 12.40234375 25.09765625 C12.73234375 26.41765625 13.06234375 27.73765625 13.40234375 29.09765625 C10.58978094 29.12449937 7.77747134 29.14441813 4.96484375 29.16015625 C4.16240234 29.16853516 3.35996094 29.17691406 2.53320312 29.18554688 C0.48939154 29.19417055 -1.55449527 29.14993775 -3.59765625 29.09765625 C-5.40044816 27.29486434 -4.7280223 24.55717924 -4.73046875 22.12890625 C-4.73175781 20.91847656 -4.73304688 19.70804688 -4.734375 18.4609375 C-4.73050781 17.18605469 -4.72664062 15.91117188 -4.72265625 14.59765625 C-4.72652344 13.32277344 -4.73039063 12.04789063 -4.734375 10.734375 C-4.73308594 9.52394531 -4.73179687 8.31351563 -4.73046875 7.06640625 C-4.72934082 5.94685547 -4.72821289 4.82730469 -4.72705078 3.67382812 C-4.52537703 -0.34138217 -4.17848393 0.11342247 0 0 Z " fill="#323232" transform="translate(158.59765625,146.90234375)"/>
<path d="M0 0 C0.99 0.66 1.98 1.32 3 2 C3 2.99 3 3.98 3 5 C1.95199219 4.87431641 1.95199219 4.87431641 0.8828125 4.74609375 C-0.02726563 4.64425781 -0.93734375 4.54242188 -1.875 4.4375 C-2.77992188 4.33308594 -3.68484375 4.22867188 -4.6171875 4.12109375 C-7.01653057 3.80325148 -7.01653057 3.80325148 -9 5 C-8.92648554 7.40419285 -8.92648554 7.40419285 -8 10 C-5.52511443 11.83452791 -5.52511443 11.83452791 -2.5 13.1875 C2.91645354 15.83290708 2.91645354 15.83290708 4 18 C4.3125 20.875 4.3125 20.875 4 24 C2.1329009 26.30275556 0.64352259 27.67823871 -2 29 C-6.94269981 29.2430836 -10.49009758 29.25495121 -15 27 C-15 26.01 -15 25.02 -15 24 C-14.319375 24.165 -13.63875 24.33 -12.9375 24.5 C-9.54684118 25.07713342 -6.43349708 25.19434889 -3 25 C-2.34 24.34 -1.68 23.68 -1 23 C-1 21.68 -1 20.36 -1 19 C-1.77085937 18.60167969 -2.54171875 18.20335937 -3.3359375 17.79296875 C-4.33882812 17.26316406 -5.34171875 16.73335937 -6.375 16.1875 C-7.37273437 15.66542969 -8.37046875 15.14335937 -9.3984375 14.60546875 C-12 13 -12 13 -14 10 C-14.4375 7.0625 -14.4375 7.0625 -14 4 C-10.21532542 -0.63927851 -5.61902797 -0.90493709 0 0 Z " fill="#121212" transform="translate(191,147)"/>
<path d="M0 0 C7.59 0 15.18 0 23 0 C23 0.99 23 1.98 23 3 C19.7 3 16.4 3 13 3 C13 11.58 13 20.16 13 29 C11.68 29 10.36 29 9 29 C9 20.75 9 12.5 9 4 C6.03 4 3.06 4 0 4 C0 2.68 0 1.36 0 0 Z " fill="#1A1A1A" transform="translate(127,147)"/>
<path d="M0 0 C0.66 0 1.32 0 2 0 C2.67057887 1.7902061 3.3363469 3.58221489 4 5.375 C4.556875 6.87160156 4.556875 6.87160156 5.125 8.3984375 C6 11 6 11 6 13 C2.7 13 -0.6 13 -4 13 C-3.27991594 8.39146203 -1.68704061 4.32762591 0 0 Z " fill="#ECECEC" transform="translate(79,152)"/>
</svg>
