<?xml version="1.0" encoding="UTF-8"?>
<svg version="1.1" xmlns="http://www.w3.org/2000/svg" width="165" height="165">
<path d="M0 0 C1.64838867 -0.02416992 1.64838867 -0.02416992 3.33007812 -0.04882812 C14.1167433 -0.05518444 23.81121983 2.03862883 33.375 7.0625 C34.05643066 7.41393066 34.73786133 7.76536133 35.43994141 8.12744141 C40.84962938 10.98896646 45.65364236 14.17994426 50.1875 18.3125 C51.41533203 19.40304688 51.41533203 19.40304688 52.66796875 20.515625 C65.67674776 32.71750547 74.8622796 50.26195935 75.5234375 68.2890625 C75.82020239 89.9480344 72.14101262 108.66041394 57.1875 125.3125 C56.45917969 126.13363281 55.73085937 126.95476562 54.98046875 127.80078125 C43.53381933 139.98711722 27.17107989 149.34509701 10.22314453 150.51757812 C6.9379425 150.61644187 3.66161223 150.63453747 0.375 150.625 C-1.27338867 150.64916992 -1.27338867 150.64916992 -2.95507812 150.67382812 C-13.7417433 150.68018444 -23.43621983 148.58637117 -33 143.5625 C-33.68143066 143.21106934 -34.36286133 142.85963867 -35.06494141 142.49755859 C-40.47462938 139.63603354 -45.27864236 136.44505574 -49.8125 132.3125 C-50.63105469 131.58546875 -51.44960938 130.8584375 -52.29296875 130.109375 C-65.30174776 117.90749453 -74.4872796 100.36304065 -75.1484375 82.3359375 C-75.44520239 60.6769656 -71.76601262 41.96458606 -56.8125 25.3125 C-56.08417969 24.49136719 -55.35585938 23.67023437 -54.60546875 22.82421875 C-39.87147027 7.13810405 -21.13818944 -0.06134123 0 0 Z " fill="#05AEC9" transform="translate(82.8125,7.6875)"/>
<path d="M0 0 C2 1 2 1 3.03515625 3.546875 C3.37417969 4.60390625 3.71320313 5.6609375 4.0625 6.75 C4.40410156 7.79671875 4.74570313 8.8434375 5.09765625 9.921875 C10.93144884 29.82243153 7.30295606 50.83990659 -2.15625 68.81640625 C-4.73646489 73.27165018 -7.56308459 77.17268446 -11 81 C-12.09248047 82.23169922 -12.09248047 82.23169922 -13.20703125 83.48828125 C-22.35891277 93.2315606 -33.44511608 99.58254084 -46 104 C-46.69867188 104.24621094 -47.39734375 104.49242187 -48.1171875 104.74609375 C-56.07694674 106.99155112 -64.81180004 106.15899417 -73 106 C-72.21358655 102.45110513 -70.95059326 100.21406748 -68.8125 97.25 C-67.87083984 95.93708984 -67.87083984 95.93708984 -66.91015625 94.59765625 C-64.72059844 91.62003673 -62.49612566 88.6705842 -60.26171875 85.7265625 C-58.90277751 83.92620382 -58.90277751 83.92620382 -57.5625 81.5625 C-55.5175122 78.20872001 -53.07909236 75.22841807 -50.63671875 72.15625 C-48.8743483 69.93629229 -48.8743483 69.93629229 -47.3125 67 C-46 65 -46 65 -43.875 64.1875 C-42 64 -42 64 -41 64 C-41.66 63.34 -42.32 62.68 -43 62 C-43.625 59.375 -43.625 59.375 -44 57 C-44.495 57.99 -44.495 57.99 -45 59 C-47.32156597 59.40729228 -49.6568787 59.74438677 -52 60 C-49.50935112 60.68707555 -47.62113708 61 -45 61 C-46.1875 62.5625 -46.1875 62.5625 -48 64 C-50.5625 63.875 -50.5625 63.875 -53 63 C-55 60 -55 60 -54.625 57.3125 C-54.41875 56.549375 -54.2125 55.78625 -54 55 C-54.66 55 -55.32 55 -56 55 C-56 57.64 -56 60.28 -56 63 C-56.66 63 -57.32 63 -58 63 C-58 60.36 -58 57.72 -58 55 C-60.475 55.495 -60.475 55.495 -63 56 C-63 58.64 -63 61.28 -63 64 C-67.39758479 65.02269414 -69.97129666 65.1262601 -74 63 C-76 61 -76 61 -76.3125 58.5625 C-76 56 -76 56 -74.75 54.1875 C-73 53 -73 53 -69 53 C-69.99 52.01 -70.98 51.02 -72 50 C-71.01 49.505 -71.01 49.505 -70 49 C-70.9075 48.608125 -71.815 48.21625 -72.75 47.8125 C-77.14766177 45.35995786 -79.40902453 42.77292642 -81 38 C-81.08315752 35.93501108 -81.10735878 33.8674211 -81.09765625 31.80078125 C-81.09443359 30.59228516 -81.09121094 29.38378906 -81.08789062 28.13867188 C-81.07951172 26.87603516 -81.07113281 25.61339844 -81.0625 24.3125 C-81.05573242 22.40114258 -81.05573242 22.40114258 -81.04882812 20.45117188 C-81.03702873 17.30073436 -81.02056597 14.15039051 -81 11 C-78.69 11 -76.38 11 -74 11 C-73.98541748 11.76666992 -73.97083496 12.53333984 -73.95581055 13.32324219 C-73.8813078 16.79933493 -73.78465354 20.27446968 -73.6875 23.75 C-73.66494141 24.9565625 -73.64238281 26.163125 -73.61914062 27.40625 C-73.58369141 28.56640625 -73.54824219 29.7265625 -73.51171875 30.921875 C-73.48553467 31.99018555 -73.45935059 33.05849609 -73.43237305 34.15917969 C-72.94905264 37.33473942 -72.2585831 38.74174763 -70 41 C-66.89802603 41.80946422 -66.89802603 41.80946422 -64 42 C-64.33 41.01 -64.66 40.02 -65 39 C-65.0833804 36.86205475 -65.10733747 34.72157991 -65.09765625 32.58203125 C-65.09443359 31.32841797 -65.09121094 30.07480469 -65.08789062 28.78320312 C-65.07951172 27.47287109 -65.07113281 26.16253906 -65.0625 24.8125 C-65.05748317 23.47721519 -65.05292059 22.14192859 -65.04882812 20.80664062 C-65.03702695 17.53771527 -65.02056297 14.26888009 -65 11 C-62.69 11 -60.38 11 -58 11 C-57.98018066 11.76666992 -57.96036133 12.53333984 -57.93994141 13.32324219 C-57.84464554 16.79917219 -57.73498402 20.27450506 -57.625 23.75 C-57.5940625 24.9565625 -57.563125 26.163125 -57.53125 27.40625 C-57.49257812 28.56640625 -57.45390625 29.7265625 -57.4140625 30.921875 C-57.36693115 32.52434082 -57.36693115 32.52434082 -57.31884766 34.15917969 C-57.00227808 36.97970307 -56.63506936 38.68920976 -55 41 C-51.58374286 41.8856963 -49.10152095 42.3274792 -45.6875 41.3125 C-43.59449427 39.68460666 -42.99187041 38.46152243 -42 36 C-41.63551171 33.19682164 -41.63551171 33.19682164 -41.5859375 30.140625 C-41.54726562 29.02558594 -41.50859375 27.91054687 -41.46875 26.76171875 C-41.4378125 25.60285156 -41.406875 24.44398437 -41.375 23.25 C-41.33632812 22.07566406 -41.29765625 20.90132812 -41.2578125 19.69140625 C-41.1636018 16.79442732 -41.07798398 13.89745374 -41 11 C-38.69 11 -36.38 11 -34 11 C-33.67 21.56 -33.34 32.12 -33 43 C-32.67 40.69 -32.34 38.38 -32 36 C-31.34 36 -30.68 36 -30 36 C-30 26.1 -30 16.2 -30 6 C-33.96 6 -37.92 6 -42 6 C-42 4.68 -42 3.36 -42 2 C-31.77 2 -21.54 2 -11 2 C-11 3.32 -11 4.64 -11 6 C-15.29 6 -19.58 6 -24 6 C-24 15.9 -24 25.8 -24 36 C-23.34 36 -22.68 36 -22 36 C-22.1546875 34.1746875 -22.1546875 34.1746875 -22.3125 32.3125 C-22.30647532 28.8724072 -22.21317961 28.25079954 -19.875 25.5 C-18.92625 24.675 -17.9775 23.85 -17 23 C-12.93026669 18.03492536 -9.55185541 12.79333973 -6.4375 7.1875 C-5.963125 6.465625 -5.48875 5.74375 -5 5 C-4.34 5 -3.68 5 -3 5 C-2.5359375 4.0409375 -2.5359375 4.0409375 -2.0625 3.0625 C-1 1 -1 1 0 0 Z " fill="#45B7CF" transform="translate(151,52)"/>
<path d="M0 0 C1.79920898 0.01353516 1.79920898 0.01353516 3.63476562 0.02734375 C6.56922309 0.05072588 9.50325234 0.0834972 12.4375 0.125 C12.4375 0.785 12.4375 1.445 12.4375 2.125 C13.4275 2.125 14.4175 2.125 15.4375 2.125 C10.10416667 13.23611111 10.10416667 13.23611111 5.4375 17.125 C4.7775 17.125 4.1175 17.125 3.4375 17.125 C3.169375 17.7025 2.90125 18.28 2.625 18.875 C1.4375 21.125 1.4375 21.125 -0.125 23.1875 C-1.74938728 25.16681496 -1.74938728 25.16681496 -2.5625 28.125 C-3.5215625 28.5890625 -3.5215625 28.5890625 -4.5 29.0625 C-7.09801965 30.40087376 -7.30346089 31.53286066 -8.5625 34.125 C-11.0625 36.875 -11.0625 36.875 -13.5625 39.125 C-14.2225 39.125 -14.8825 39.125 -15.5625 39.125 C-15.5625 40.115 -15.5625 41.105 -15.5625 42.125 C-16.88671875 43.5703125 -16.88671875 43.5703125 -18.5625 45.125 C-19.51754735 46.40374688 -20.45429809 47.69630639 -21.375 49 C-23.33091115 51.66316082 -25.21639133 53.83111983 -27.8125 55.875 C-30.33224791 57.93661192 -31.45360992 59.13099678 -32.5625 62.125 C-33.2225 62.125 -33.8825 62.125 -34.5625 62.125 C-34.5625 62.785 -34.5625 63.445 -34.5625 64.125 C-35.2225 64.125 -35.8825 64.125 -36.5625 64.125 C-36.789375 64.805625 -37.01625 65.48625 -37.25 66.1875 C-40.09250896 72.54930578 -44.0751449 76.91377399 -49.5625 81.125 C-52.5325 79.145 -55.5025 77.165 -58.5625 75.125 C-57.53125 75.970625 -56.5 76.81625 -55.4375 77.6875 C-50.56039892 81.87211208 -46.29211984 86.2556766 -43.5625 92.125 C-43.27117188 90.95324219 -42.97984375 89.78148438 -42.6796875 88.57421875 C-38.94682088 74.0647285 -34.35255137 61.09353911 -21.3125 52.625 C-18.03567889 50.45355333 -16.03367882 49.11643223 -15 45.25 C-14.855625 44.21875 -14.71125 43.1875 -14.5625 42.125 C-13.5625 41.125 -13.5625 41.125 -10.625 40.9375 C-7.5625 41.125 -7.5625 41.125 -5.5625 43.125 C-5.3125 46.125 -5.3125 46.125 -5.5625 49.125 C-6.5525 50.115 -6.5525 50.115 -7.5625 51.125 C-8.75875 51.0425 -9.955 50.96 -11.1875 50.875 C-15.71460695 50.80132195 -18.18187321 52.23253166 -21.61328125 55.09765625 C-35.85919095 69.9145443 -37.86986176 90.61170898 -38.5625 110.125 C-40.2125 110.125 -41.8625 110.125 -43.5625 110.125 C-43.64886719 109.30257812 -43.73523438 108.48015625 -43.82421875 107.6328125 C-45.16453259 96.98408056 -48.33447687 87.47626657 -56.5625 80.125 C-58.0475 79.63 -58.0475 79.63 -59.5625 79.125 C-57.2525 81.105 -54.9425 83.085 -52.5625 85.125 C-53.81683501 88.88800503 -55.75419424 90.31669424 -58.5625 93.125 C-62.42336512 97.88759065 -62.42336512 97.88759065 -65.5625 103.125 C-67.20613134 103.84659424 -68.87300386 104.51851421 -70.5625 105.125 C-71.21214023 103.23046779 -71.85705115 101.33431351 -72.5 99.4375 C-73.03947266 97.85388672 -73.03947266 97.85388672 -73.58984375 96.23828125 C-79.25629341 78.10109096 -76.33653854 57.5931844 -68.25 40.8125 C-65.21248279 35.03993021 -61.91827022 29.97554331 -57.5625 25.125 C-56.83417969 24.30386719 -56.10585938 23.48273437 -55.35546875 22.63671875 C-40.30890102 6.61783646 -21.51176618 -0.30952182 0 0 Z " fill="#46B7CF" transform="translate(83.5625,7.875)"/>
<path d="M0 0 C2.31 0 4.62 0 7 0 C7.01458252 0.76666992 7.02916504 1.53333984 7.04418945 2.32324219 C7.1186922 5.79933493 7.21534646 9.27446968 7.3125 12.75 C7.33505859 13.9565625 7.35761719 15.163125 7.38085938 16.40625 C7.41630859 17.56640625 7.45175781 18.7265625 7.48828125 19.921875 C7.51446533 20.99018555 7.54064941 22.05849609 7.56762695 23.15917969 C8.05094736 26.33473942 8.7414169 27.74174763 11 30 C14.10197397 30.80946422 14.10197397 30.80946422 17 31 C16.67 30.01 16.34 29.02 16 28 C15.9166196 25.86205475 15.89266253 23.72157991 15.90234375 21.58203125 C15.90556641 20.32841797 15.90878906 19.07480469 15.91210938 17.78320312 C15.92048828 16.47287109 15.92886719 15.16253906 15.9375 13.8125 C15.94251683 12.47721519 15.94707941 11.14192859 15.95117188 9.80664062 C15.96297305 6.53771527 15.97943703 3.26888009 16 0 C18.31 0 20.62 0 23 0 C23.01981934 0.76666992 23.03963867 1.53333984 23.06005859 2.32324219 C23.15535446 5.79917219 23.26501598 9.27450506 23.375 12.75 C23.4059375 13.9565625 23.436875 15.163125 23.46875 16.40625 C23.50742188 17.56640625 23.54609375 18.7265625 23.5859375 19.921875 C23.63306885 21.52434082 23.63306885 21.52434082 23.68115234 23.15917969 C23.99772192 25.97970307 24.36493064 27.68920976 26 30 C29.41625714 30.8856963 31.89847905 31.3274792 35.3125 30.3125 C37.40550573 28.68460666 38.00812959 27.46152243 39 25 C39.36448829 22.19682164 39.36448829 22.19682164 39.4140625 19.140625 C39.45273438 18.02558594 39.49140625 16.91054687 39.53125 15.76171875 C39.5621875 14.60285156 39.593125 13.44398437 39.625 12.25 C39.66367188 11.07566406 39.70234375 9.90132812 39.7421875 8.69140625 C39.8363982 5.79442732 39.92201602 2.89745374 40 0 C42.31 0 44.62 0 47 0 C47.02470469 5.49926424 47.04286223 10.99849622 47.05493164 16.49780273 C47.05996279 18.36890221 47.06678835 20.23999775 47.07543945 22.11108398 C47.08755829 24.79932628 47.09324047 27.48751664 47.09765625 30.17578125 C47.10281754 31.01337479 47.10797882 31.85096832 47.11329651 32.71394348 C47.11362064 36.06375742 47.06684515 38.79946456 46 42 C45.34 42 44.68 42 44 42 C44 44.64 44 47.28 44 50 C42.02 50.495 42.02 50.495 40 51 C39.34 49.35 38.68 47.7 38 46 C37.34 46.66 36.68 47.32 36 48 C33.67724823 48.40047444 31.34260643 48.7397104 29 49 C31.49064888 49.68707555 33.37886292 50 36 50 C34.8125 51.5625 34.8125 51.5625 33 53 C30.4375 52.875 30.4375 52.875 28 52 C26 49 26 49 26.375 46.3125 C26.58125 45.549375 26.7875 44.78625 27 44 C26.34 44 25.68 44 25 44 C25 46.64 25 49.28 25 52 C24.34 52 23.68 52 23 52 C23 49.36 23 46.72 23 44 C20.525 44.495 20.525 44.495 18 45 C18 47.64 18 50.28 18 53 C13.60241521 54.02269414 11.02870334 54.1262601 7 52 C5 50 5 50 4.6875 47.5625 C5 45 5 45 6.25 43.1875 C8 42 8 42 12 42 C11.01 41.01 10.02 40.02 9 39 C9.99 38.505 9.99 38.505 11 38 C10.0925 37.608125 9.185 37.21625 8.25 36.8125 C3.85233823 34.35995786 1.59097547 31.77292642 0 27 C-0.08315752 24.93501108 -0.10735878 22.8674211 -0.09765625 20.80078125 C-0.09443359 19.59228516 -0.09121094 18.38378906 -0.08789062 17.13867188 C-0.07951172 15.87603516 -0.07113281 14.61339844 -0.0625 13.3125 C-0.05573242 11.40114258 -0.05573242 11.40114258 -0.04882812 9.45117188 C-0.03702873 6.30073436 -0.02056597 3.15039051 0 0 Z " fill="#10ACC8" transform="translate(70,63)"/>
<path d="M0 0 C-0.73126099 0.54938232 -0.73126099 0.54938232 -1.47729492 1.10986328 C-3.65733216 3.81594767 -3.37239927 5.79951766 -3.36328125 9.2421875 C-3.36263672 10.47324219 -3.36199219 11.70429687 -3.36132812 12.97265625 C-3.34521484 14.26042969 -3.32910156 15.54820313 -3.3125 16.875 C-3.31572266 18.15503906 -3.31894531 19.43507813 -3.32226562 20.75390625 C-3.29310754 28.5943998 -3.29310754 28.5943998 -1 36 C-1 36.66 -1 37.32 -1 38 C-0.34 38.99 0.32 39.98 1 41 C0.67 41.66 0.34 42.32 0 43 C-0.66 43 -1.32 43 -2 43 C-2 43.99 -2 44.98 -2 46 C-1.34 46 -0.68 46 0 46 C0 46.66 0 47.32 0 48 C-0.66 48 -1.32 48 -2 48 C-2 50.64 -2 53.28 -2 56 C-3.76813112 56.24915939 -5.53974982 56.47366632 -7.3125 56.6875 C-8.29863281 56.81511719 -9.28476563 56.94273438 -10.30078125 57.07421875 C-13 57 -13 57 -14.83203125 55.67578125 C-16.48266303 53.30748347 -16.42346072 51.82307144 -16 49 C-14.5 47.1875 -14.5 47.1875 -13 46 C-14.2236068 45.9254644 -14.2236068 45.9254644 -16 47 C-16.46651207 49.12576782 -16.46651207 49.12576782 -16.625 51.5625 C-16.69976562 52.38878906 -16.77453125 53.21507812 -16.8515625 54.06640625 C-16.90054688 54.70449219 -16.94953125 55.34257813 -17 56 C-17.66 56 -18.32 56 -19 56 C-19 51.71 -19 47.42 -19 43 C-19.66 43 -20.32 43 -21 43 C-21 47.29 -21 51.58 -21 56 C-21.66 56 -22.32 56 -23 56 C-23.33 52.7 -23.66 49.4 -24 46 C-24 49.3 -24 52.6 -24 56 C-24.66 56 -25.32 56 -26 56 C-28.74691148 38.92460431 -28.08301306 24.78841916 -18 10 C-8.7755102 -2.24489796 -8.7755102 -2.24489796 0 0 Z " fill="#15B1CB" transform="translate(74,59)"/>
<path d="M0 0 C2.31 0 4.62 0 7 0 C7.01981934 0.76666992 7.03963867 1.53333984 7.06005859 2.32324219 C7.15535446 5.79917219 7.26501598 9.27450506 7.375 12.75 C7.4059375 13.9565625 7.436875 15.163125 7.46875 16.40625 C7.50742188 17.56640625 7.54609375 18.7265625 7.5859375 19.921875 C7.6173584 20.99018555 7.6487793 22.05849609 7.68115234 23.15917969 C7.99772192 25.97970307 8.36493064 27.68920976 10 30 C13.41625714 30.8856963 15.89847905 31.3274792 19.3125 30.3125 C21.40550573 28.68460666 22.00812959 27.46152243 23 25 C23.36448829 22.19682164 23.36448829 22.19682164 23.4140625 19.140625 C23.45273438 18.02558594 23.49140625 16.91054687 23.53125 15.76171875 C23.5621875 14.60285156 23.593125 13.44398437 23.625 12.25 C23.66367188 11.07566406 23.70234375 9.90132812 23.7421875 8.69140625 C23.8363982 5.79442732 23.92201602 2.89745374 24 0 C26.31 0 28.62 0 31 0 C31 12.21 31 24.42 31 37 C29.02 37 27.04 37 25 37 C24.505 34.525 24.505 34.525 24 32 C23.401875 32.639375 22.80375 33.27875 22.1875 33.9375 C18.40196171 37.50672182 14.41473847 37.39502687 9.4453125 37.3515625 C7 37 7 37 4 34.75 C0.60552913 30.08260256 -0.24842839 27.32712266 -0.1953125 21.484375 C-0.18886719 20.23398438 -0.18242188 18.98359375 -0.17578125 17.6953125 C-0.15902344 16.39335938 -0.14226562 15.09140625 -0.125 13.75 C-0.11597656 12.43257812 -0.10695313 11.11515625 -0.09765625 9.7578125 C-0.07408533 6.50502538 -0.04118022 3.25260411 0 0 Z " fill="#E8EFF1" transform="translate(86,63)"/>
<path d="M0 0 C3.0625 0.1875 3.0625 0.1875 5.0625 2.1875 C5.3125 5.1875 5.3125 5.1875 5.0625 8.1875 C4.4025 8.8475 3.7425 9.5075 3.0625 10.1875 C1.86625 10.105 0.67 10.0225 -0.5625 9.9375 C-5.08960695 9.86382195 -7.55687321 11.29503166 -10.98828125 14.16015625 C-25.23419095 28.9770443 -27.24486176 49.67420898 -27.9375 69.1875 C-29.5875 69.1875 -31.2375 69.1875 -32.9375 69.1875 C-33.02386719 68.36507812 -33.11023438 67.54265625 -33.19921875 66.6953125 C-34.51696842 56.22585183 -37.61385236 46.25226639 -45.9375 39.1875 C-51.032766 36.13220338 -56.05381824 34.68823887 -61.9375 34.1875 C-61.9375 33.5275 -61.9375 32.8675 -61.9375 32.1875 C-53.89484072 31.50301836 -47.86019592 34.35752238 -41.6875 39.4375 C-37.92944736 42.90242453 -35.40427357 46.74796714 -32.9375 51.1875 C-32.50050781 49.42986328 -32.50050781 49.42986328 -32.0546875 47.63671875 C-28.32182088 33.1272285 -23.72755137 20.15603911 -10.6875 11.6875 C-7.41067889 9.51605333 -5.40867882 8.17893223 -4.375 4.3125 C-4.230625 3.28125 -4.08625 2.25 -3.9375 1.1875 C-2.9375 0.1875 -2.9375 0.1875 0 0 Z " fill="#E3EDF0" transform="translate(72.9375,48.8125)"/>
<path d="M0 0 C3.3 0 6.6 0 10 0 C10 0.66 10 1.32 10 2 C11.2684375 2.309375 11.2684375 2.309375 12.5625 2.625 C16.84653389 4.33861355 19.67242567 6.86932356 23 10 C21.74566499 13.76300503 19.80830576 15.19169424 17 18 C13.13913488 22.76259065 13.13913488 22.76259065 10 28 C8.35636866 28.72159424 6.68949614 29.39351421 5 30 C4.35035977 28.10546779 3.70544885 26.20931351 3.0625 24.3125 C2.70285156 23.25675781 2.34320313 22.20101562 1.97265625 21.11328125 C0.37085559 15.98623256 -0.11684737 11.5678899 -0.0625 6.1875 C-0.05347656 5.02605469 -0.04445313 3.86460938 -0.03515625 2.66796875 C-0.02355469 1.78753906 -0.01195312 0.90710938 0 0 Z " fill="#30B3CC" transform="translate(8,83)"/>
<path d="M0 0 C2.31 0 4.62 0 7 0 C7.0093457 0.76143311 7.01869141 1.52286621 7.02832031 2.30737305 C7.08210937 5.7680662 7.16574184 9.22742018 7.25 12.6875 C7.26417969 13.88568359 7.27835937 15.08386719 7.29296875 16.31835938 C7.32519531 17.47529297 7.35742188 18.63222656 7.390625 19.82421875 C7.41157227 20.88729248 7.43251953 21.95036621 7.45410156 23.0456543 C8.12754267 26.6902477 9.41554716 28.38296262 12 31 C12.99 31.33 13.98 31.66 15 32 C14.01 34.475 14.01 34.475 13 37 C6.90540206 36.76099616 6.90540206 36.76099616 4.45703125 34.703125 C0.54700022 30.07071287 -0.12533832 26.69706164 -0.09765625 20.80078125 C-0.09443359 19.59228516 -0.09121094 18.38378906 -0.08789062 17.13867188 C-0.07951172 15.87603516 -0.07113281 14.61339844 -0.0625 13.3125 C-0.05573242 11.40114258 -0.05573242 11.40114258 -0.04882812 9.45117188 C-0.03702873 6.30073436 -0.02056597 3.15039051 0 0 Z " fill="#E9EFF2" transform="translate(70,63)"/>
<path d="M0 0 C10.23 0 20.46 0 31 0 C31 1.32 31 2.64 31 4 C26.71 4 22.42 4 18 4 C18 13.9 18 23.8 18 34 C16.35 34 14.7 34 13 34 C13 24.1 13 14.2 13 4 C8.71 4 4.42 4 0 4 C0 2.68 0 1.36 0 0 Z " fill="#EAEFF1" transform="translate(109,54)"/>
<path d="M0 0 C2.97 1.65 5.94 3.3 9 5 C9 5.99 9 6.98 9 8 C7.68 8.33 6.36 8.66 5 9 C5.9590625 9.2165625 5.9590625 9.2165625 6.9375 9.4375 C9 10 9 10 10 11 C10.14115161 13.67058851 10.04247107 16.32432238 10 19 C9.34 19 8.68 19 8 19 C8 16.36 8 13.72 8 11 C6.35 11.33 4.7 11.66 3 12 C3 14.64 3 17.28 3 20 C-1.39758479 21.02269414 -3.97129666 21.1262601 -8 19 C-10 17 -10 17 -10.3125 14.5625 C-10 12 -10 12 -8.75 10.1875 C-7 9 -7 9 -3 9 C-3.99 8.01 -4.98 7.02 -6 6 C-4 4 -2 2 0 0 Z " fill="#49BCD1" transform="translate(85,96)"/>
<path d="M0 0 C0.66 0 1.32 0 2 0 C2 0.99 2 1.98 2 3 C2.66 3 3.32 3 4 3 C4 3.66 4 4.32 4 5 C3.34 5 2.68 5 2 5 C2 7.64 2 10.28 2 13 C0.23186888 13.24915939 -1.53974982 13.47366632 -3.3125 13.6875 C-4.29863281 13.81511719 -5.28476563 13.94273438 -6.30078125 14.07421875 C-9 14 -9 14 -10.83203125 12.67578125 C-12.48266303 10.30748347 -12.42346072 8.82307144 -12 6 C-10.76953125 4.35546875 -10.76953125 4.35546875 -9 3 C-6.73828125 2.70703125 -6.73828125 2.70703125 -4.3125 2.8125 C-3.10013672 2.85310547 -3.10013672 2.85310547 -1.86328125 2.89453125 C-1.24839844 2.92933594 -0.63351563 2.96414062 0 3 C0 2.01 0 1.02 0 0 Z " fill="#62C1D4" transform="translate(70,102)"/>
<path d="M0 0 C3.3 0 6.6 0 10 0 C10.05878606 4.43744296 10.09385813 8.87478373 10.125 13.3125 C10.14175781 14.55580078 10.15851563 15.79910156 10.17578125 17.08007812 C10.21537695 24.62305909 9.68648288 31.6408884 8 39 C7.67 39 7.34 39 7 39 C7 26.46 7 13.92 7 1 C4.69 1 2.38 1 0 1 C0 0.67 0 0.34 0 0 Z " fill="#13ABC7" transform="translate(110,60)"/>
<path d="M0 0 C3 0.25 3 0.25 5 2.25 C5.25 5.25 5.25 5.25 5 8.25 C3 10.25 3 10.25 0 10.5625 C-0.99 10.459375 -1.98 10.35625 -3 10.25 C-5.14915785 7.02626323 -5.38286803 5.98296326 -5 2.25 C-3 0.25 -3 0.25 0 0 Z " fill="#EDF1F3" transform="translate(73,48.75)"/>
<path d="M0 0 C8.04265928 -0.68448164 14.07730408 2.17002238 20.25 7.25 C23.93916563 10.66616737 26.82626273 14.45396292 29 19 C29 19.66 29 20.32 29 21 C28.01 21.33 27.02 21.66 26 22 C25.46375 20.824375 24.9275 19.64875 24.375 18.4375 C20.73834841 11.27823816 16.82359998 6.71160575 9.2578125 3.7109375 C6.15272475 2.73321091 3.24140837 2.27586454 0 2 C0 1.34 0 0.68 0 0 Z " fill="#D4E6EC" transform="translate(11,81)"/>
<path d="M0 0 C4.29 0 8.58 0 13 0 C13 0.66 13 1.32 13 2 C9.37 2 5.74 2 2 2 C2.08378906 3.51851562 2.16757813 5.03703125 2.25390625 6.6015625 C2.35711067 8.60935756 2.4599564 10.61717108 2.5625 12.625 C2.61857422 13.62402344 2.67464844 14.62304688 2.73242188 15.65234375 C2.97786206 20.59387286 3.12056885 25.13590113 2 30 C1.34 30 0.68 30 0 30 C0 20.1 0 10.2 0 0 Z " fill="#00A8C5" transform="translate(127,58)"/>
<path d="M0 0 C0 2.97 0 5.94 0 9 C-5.44736842 10.33157895 -5.44736842 10.33157895 -7.875 8.875 C-9.37957373 6.36737712 -9.4318188 4.87879197 -9 2 C-6.63480795 -1.94198675 -4.0732639 -0.99568673 0 0 Z " fill="#D0E4EA" transform="translate(84,106)"/>
<path d="M0 0 C1.65 0.33 3.3 0.66 5 1 C4.38125 1.28875 3.7625 1.5775 3.125 1.875 C0.86674235 2.93720042 0.86674235 2.93720042 -1 5 C-0.67673447 8.59679066 -0.67673447 8.59679066 0 12 C-2.46393719 13.55136786 -3.68089146 14.03039129 -6.625 13.75 C-9 13 -9 13 -11 11 C-10.96712417 8.27130593 -10.43602229 5.7033382 -10 3 C-9.34 3 -8.68 3 -8 3 C-7.814375 3.9590625 -7.814375 3.9590625 -7.625 4.9375 C-7.315625 5.9584375 -7.315625 5.9584375 -7 7 C-6.34 7.33 -5.68 7.66 -5 8 C-5 8.99 -5 9.98 -5 11 C-5.99 11.495 -5.99 11.495 -7 12 C-6.01 11.67 -5.02 11.34 -4 11 C-4.34786708 9.02463255 -4.34786708 9.02463255 -5 7 C-5.66 6.67 -6.32 6.34 -7 6 C-7 5.34 -7 4.68 -7 4 C-5.68 4.33 -4.36 4.66 -3 5 C-3.33 4.01 -3.66 3.02 -4 2 C-3.01 2 -2.02 2 -1 2 C-0.67 1.34 -0.34 0.68 0 0 Z " fill="#10AAC6" transform="translate(126,103)"/>
<path d="M0 0 C1.9375 0.75 1.9375 0.75 3.9375 2.75 C3.9375 3.74 3.9375 4.73 3.9375 5.75 C1.6275 6.08 -0.6825 6.41 -3.0625 6.75 C-0.57185112 7.43707555 1.31636292 7.75 3.9375 7.75 C2.75 9.3125 2.75 9.3125 0.9375 10.75 C-1.625 10.625 -1.625 10.625 -4.0625 9.75 C-6.0625 6.75 -6.0625 6.75 -5.875 4.1875 C-4.82466493 1.0364948 -3.46422443 -0.41990599 0 0 Z " fill="#C0DEE6" transform="translate(102.0625,105.25)"/>
<path d="M0 0 C2.46278801 2.46278801 2.99771255 4.70676982 4 8 C5.65 8 7.3 8 9 8 C8.67 8.66 8.34 9.32 8 10 C4.28400809 10.20086443 3.22791555 10.1519437 0 8 C-0.66 8.66 -1.32 9.32 -2 10 C-5.625 9.625 -5.625 9.625 -9 9 C-8.67 8.34 -8.34 7.68 -8 7 C-6.35 7.33 -4.7 7.66 -3 8 C-3 7.67 -3 7.34 -3 7 C-3.639375 6.87625 -4.27875 6.7525 -4.9375 6.625 C-5.618125 6.41875 -6.29875 6.2125 -7 6 C-7.33 5.34 -7.66 4.68 -8 4 C-5.36 4 -2.72 4 0 4 C0 2.68 0 1.36 0 0 Z " fill="#0AA7C4" transform="translate(106,107)"/>
<path d="M0 0 C2.6875 -0.3125 2.6875 -0.3125 6 0 C7.11375 1.2375 7.11375 1.2375 8.25 2.5 C11.33628152 5.30571048 11.96149032 5.36311357 15.9375 5.375 C19.67747707 5.18492643 23.33092948 4.7724359 27 4 C27 4.66 27 5.32 27 6 C22.01690021 8.04434863 17.31577829 9.0299866 12 8 C8.73278493 6.31735843 5.89842935 4.24657375 3 2 C2.01 1.34 1.02 0.68 0 0 Z " fill="#1DACC7" transform="translate(82,94)"/>
<path d="M0 0 C0.33 0 0.66 0 1 0 C1.8320582 5.72040011 2.12036664 11.22240116 2 17 C1.34 17 0.68 17 0 17 C-0.33 17.99 -0.66 18.98 -1 20 C-1.02696009 17.2291017 -1.04681952 14.4584655 -1.0625 11.6875 C-1.07087891 10.90181641 -1.07925781 10.11613281 -1.08789062 9.30664062 C-1.09111328 8.54931641 -1.09433594 7.79199219 -1.09765625 7.01171875 C-1.10289307 6.31522217 -1.10812988 5.61872559 -1.11352539 4.90112305 C-1 3 -1 3 0 0 Z " fill="#08A6C3" transform="translate(46,98)"/>
<path d="M0 0 C1.67542976 0.28604898 3.34385343 0.61781233 5 1 C4.67 2.65 4.34 4.3 4 6 C2.125 6.625 2.125 6.625 0 7 C-0.66 6.34 -1.32 5.68 -2 5 C-1.46428571 1.46428571 -1.46428571 1.46428571 0 0 Z " fill="#10A9C5" transform="translate(78,107)"/>
<path d="M0 0 C0.33 0 0.66 0 1 0 C1.33 2.31 1.66 4.62 2 7 C2.99 7 3.98 7 5 7 C5.33 4.69 5.66 2.38 6 0 C6.66 0 7.32 0 8 0 C8.29296875 6.0546875 8.29296875 6.0546875 8 8 C5 10 5 10 2.875 9.6875 C1 9 1 9 0 8 C-0.14115161 5.32941149 -0.04247107 2.67567762 0 0 Z " fill="#C7E1E8" transform="translate(108,106)"/>
<path d="M0 0 C-0.33 0.99 -0.66 1.98 -1 3 C-1.825 3.28875 -2.65 3.5775 -3.5 3.875 C-4.325 4.24625 -5.15 4.6175 -6 5 C-6.89386164 7.54775306 -6.89386164 7.54775306 -7 10 C-7.99 10.33 -8.98 10.66 -10 11 C-10 9.02 -10 7.04 -10 5 C-9.01 4.67 -8.02 4.34 -7 4 C-7 3.01 -7 2.02 -7 1 C-4.53721199 -0.231394 -2.7204945 -0.07159196 0 0 Z " fill="#21AFC9" transform="translate(75,46)"/>
<path d="M0 0 C0.66 0 1.32 0 2 0 C2 0.99 2 1.98 2 3 C2.66 3 3.32 3 4 3 C4 3.66 4 4.32 4 5 C3.34 5 2.68 5 2 5 C2 7.64 2 10.28 2 13 C1.34 13 0.68 13 0 13 C-0.19551338 11.39679026 -0.38111983 9.79237014 -0.5625 8.1875 C-0.71912109 6.84751953 -0.71912109 6.84751953 -0.87890625 5.48046875 C-1 3 -1 3 0 0 Z " fill="#BBDCE6" transform="translate(70,102)"/>
<path d="M0 0 C0 0.99 0 1.98 0 3 C-1.64453125 4.5 -1.64453125 4.5 -3.8125 6 C-5.89711647 7.4580924 -7.80252617 8.79615605 -9.57421875 10.625 C-11 12 -11 12 -14 13 C-12.47605205 8.79467528 -9.3847135 6.74995834 -5.875 4.25 C-5.03001953 3.63318359 -5.03001953 3.63318359 -4.16796875 3.00390625 C-2.78398366 1.99523915 -1.39269459 0.99660714 0 0 Z " fill="#C2DFE7" transform="translate(68,56)"/>
<path d="M0 0 C1.98 0.495 1.98 0.495 4 1 C4 1.66 4 2.32 4 3 C2.68 2.67 1.36 2.34 0 2 C0 2.66 0 3.32 0 4 C1.32 4.66 2.64 5.32 4 6 C3.67 7.32 3.34 8.64 3 10 C1.68 10 0.36 10 -1 10 C-0.67 9.34 -0.34 8.68 0 8 C0.66 8.33 1.32 8.66 2 9 C2 8.01 2 7.02 2 6 C1.01 5.67 0.02 5.34 -1 5 C-0.67 3.35 -0.34 1.7 0 0 Z " fill="#BDDDE6" transform="translate(119,105)"/>
<path d="M0 0 C5.8022175 -0.36263859 9.63999211 0.74315457 15 3 C14.01 3.66 13.02 4.32 12 5 C10.31165408 4.39031953 8.64797236 3.71162443 7 3 C4.67402489 2.6186926 2.34087842 2.27539746 0 2 C0 1.34 0 0.68 0 0 Z " fill="#BCDCE5" transform="translate(11,81)"/>
<path d="M0 0 C3.63 0.33 7.26 0.66 11 1 C9.515 2.485 9.515 2.485 8 4 C4.3125 3.6875 4.3125 3.6875 1 3 C0.67 2.01 0.34 1.02 0 0 Z " fill="#1DABC6" transform="translate(95,91)"/>
<path d="M0 0 C2.31 0.33 4.62 0.66 7 1 C7 1.99 7 2.98 7 4 C4.36 4 1.72 4 -1 4 C-0.67 2.68 -0.34 1.36 0 0 Z " fill="#69C0D3" transform="translate(61,107)"/>
<path d="M0 0 C2.31 0.33 4.62 0.66 7 1 C7 1.99 7 2.98 7 4 C4.36 4 1.72 4 -1 4 C-0.67 2.68 -0.34 1.36 0 0 Z " fill="#75C6D8" transform="translate(127,107)"/>
<path d="M0 0 C1.65 0.33 3.3 0.66 5 1 C5 1.66 5 2.32 5 3 C5.66 3.33 6.32 3.66 7 4 C4.36 4 1.72 4 -1 4 C-0.67 2.68 -0.34 1.36 0 0 Z " fill="#72C3D5" transform="translate(99,107)"/>
<path d="M0 0 C0.66 0.99 1.32 1.98 2 3 C0.71389765 5.5722047 -0.33393981 6.00974907 -3 7 C-5.1875 6.75 -5.1875 6.75 -7 6 C-7.33 5.34 -7.66 4.68 -8 4 C-5.36 4 -2.72 4 0 4 C0 2.68 0 1.36 0 0 Z " fill="#00A1BF" transform="translate(106,107)"/>
<path d="M0 0 C3.67420866 0.30618405 4.78135513 0.75771784 7.3125 3.5625 C8.1478125 4.7690625 8.1478125 4.7690625 9 6 C4.58763974 6 3.21615077 3.9302707 0 1 C0 0.67 0 0.34 0 0 Z " fill="#E2EBEF" transform="translate(24,85)"/>
<path d="M0 0 C2.64 0 5.28 0 8 0 C6.8125 1.5625 6.8125 1.5625 5 3 C2.3125 2.6875 2.3125 2.6875 0 2 C0 1.34 0 0.68 0 0 Z " fill="#17ACC7" transform="translate(126,111)"/>
<path d="M0 0 C0.99 0.66 1.98 1.32 3 2 C1.625 3.5 1.625 3.5 0 5 C-0.66 5 -1.32 5 -2 5 C-2.33 5.66 -2.66 6.32 -3 7 C-3.33 6.01 -3.66 5.02 -4 4 C-2.68 2.68 -1.36 1.36 0 0 Z " fill="#1CACC7" transform="translate(63,61)"/>
</svg>
